<!-- Generator: Adobe Illustrator 23.0.1, SVG Export Plug-In  -->
<svg version="1.1" xmlns="http://www.w3.org/2000/svg" xmlns:xlink="http://www.w3.org/1999/xlink" x="0px" y="0px" width="21.71px"
     height="331.21px" viewBox="0 0 21.71 331.21" style="enable-background:new 0 0 21.71 331.21;" xml:space="preserve">
<style type="text/css">
	.st0{fill:none;stroke:#000000;stroke-miterlimit:10;}
	.st1{fill:#FFFFFF;stroke:#000000;stroke-miterlimit:10;}
</style>
    <defs>
</defs>
    <g>
	<line class="st0" x1="10.85" y1="10.35" x2="10.85" y2="320.35"/>
</g>
    <polyline class="st0" points="21.35,0.35 10.85,10.85 0.35,0.35 "/>
    <polyline class="st0" points="0.35,330.85 10.85,320.35 21.35,330.85 "/>
    <rect x="3.85" y="274.85" transform="matrix(0.7071 0.7071 -0.7071 0.7071 202.4795 74.8784)" class="st1" width="14" height="14"/>
    <rect x="3.85" y="216.85" transform="matrix(0.7071 0.7071 -0.7071 0.7071 161.4673 57.8906)" class="st1" width="14" height="14"/>
    <rect x="3.85" y="158.85" transform="matrix(0.7071 0.7071 -0.7071 0.7071 120.4551 40.9028)" class="st1" width="14" height="14"/>
    <rect x="3.85" y="100.85" transform="matrix(0.7071 0.7071 -0.7071 0.7071 79.4429 23.915)" class="st1" width="14" height="14"/>
    <rect x="3.85" y="42.85" transform="matrix(0.7071 0.7071 -0.7071 0.7071 38.4307 6.9271)" class="st1" width="14" height="14"/>
</svg>
