<!-- Generator: Adobe Illustrator 23.0.1, SVG Export Plug-In  -->
<svg version="1.1" xmlns="http://www.w3.org/2000/svg" xmlns:xlink="http://www.w3.org/1999/xlink" x="0px" y="0px" width="21.71px"
     height="216.71px" viewBox="0 0 21.71 216.71" style="enable-background:new 0 0 21.71 216.71;" xml:space="preserve">
<style type="text/css">
	.st0{fill:#FFFFFF;}
</style>
    <defs>
</defs>
    <g>
	<polygon points="21,216.71 10.85,206.56 0.71,216.71 0,216 10.35,205.65 10.35,11.06 0,0.71 0.71,0 10.85,10.15 21,0 21.71,0.71
		11.35,11.06 11.35,205.65 21.71,216 	"/>
</g>
    <g>

		<rect x="3.86" y="159.85" transform="matrix(0.7071 -0.7071 0.7071 0.7071 -114.8007 56.5474)" class="st0" width="14" height="14"/>
        <path d="M10.86,177.46L0.25,166.85l10.61-10.61l10.61,10.61L10.86,177.46z M1.67,166.85l9.19,9.19l9.19-9.19l-9.19-9.19
		L1.67,166.85z"/>
</g>
    <g>

		<rect x="3.86" y="101.85" transform="matrix(0.7071 -0.7071 0.7071 0.7071 -73.7889 39.5594)" class="st0" width="14" height="14"/>
        <path d="M10.86,119.46L0.25,108.85l10.61-10.61l10.61,10.61L10.86,119.46z M1.67,108.85l9.19,9.19l9.19-9.19l-9.19-9.19
		L1.67,108.85z"/>
</g>
    <g>
	<rect x="3.86" y="43.85" transform="matrix(0.7071 -0.7071 0.7071 0.7071 -32.7771 22.5715)" class="st0" width="14" height="14"/>
        <path d="M10.86,61.46L0.25,50.85l10.61-10.61l10.61,10.61L10.86,61.46z M1.67,50.85l9.19,9.19l9.19-9.19l-9.19-9.19L1.67,50.85z"/>
</g>
</svg>
