<!-- Generator: Adobe Illustrator 23.0.1, SVG Export Plug-In  -->
<svg version="1.1" xmlns="http://www.w3.org/2000/svg" xmlns:xlink="http://www.w3.org/1999/xlink" x="0px" y="0px"
     width="286.19px" height="280.27px" viewBox="0 0 286.19 280.27" style="enable-background:new 0 0 286.19 280.27;"
     xml:space="preserve">
<style type="text/css">
	.st0{fill:#047399;}
	.st1{fill:#1A7999;}
</style>
    <defs>
</defs>
    <path class="st0" d="M163.18,258.57c0.33,0.35,0.66,0.71,0.99,1.06c0.96,5.14,5.73,6.97,8.95,10.1c1.16,1.13,2.15,2.03,1.86,3.72
	c-0.27,1.55-1.41,1.96-2.79,2.38c-6.22,1.92-12.59,2.61-19.05,2.98c-8.99,0.52-17.63-1.22-26.23-3.55
	c-4.95-1.34-10.04-2.2-14.93-3.69c-8.65-2.64-16.8-6.55-24.83-10.67c-5.8-2.97-11.76-5.8-17.09-9.5
	c-8.35-5.82-16.56-11.88-24.54-18.24c-9.08-7.25-17.34-15.34-25.17-23.82c-4.2-4.55-9.26-8.54-11.97-14.44
	c-0.62-1.35-2.26-1.14-3.61-0.81l0.24-0.29c0,0-0.21,0.31-0.21,0.31c0.3-1.14,0.45-2.33-0.36-3.29c-2.68-3.19-0.47-5.63,1.88-6.73
	c3.65-1.7,5.29-5.82,9.4-6.87c1.65-0.42,1.47-2.33,0.96-3.83l0.18,0.3c0,0-0.13-0.32-0.13-0.32c4.33,1.43,5.73-2.7,8.06-4.6
	c4.39-3.58,9.85-6.18,12.35-11.77c0.02-0.3,0.18-0.43,0.48-0.4c2.81,0.25,4.97-1.2,6.3-3.29c2.46-3.87,5.21-2.76,7.23-0.28
	c5.58,6.85,12.21,12.49,18.78,18.33c9.82,8.74,18.71,18.52,28.43,27.39c3.25,2.96,5.42,7.79,10.79,8.02c0,0-0.01-0.01-0.01-0.01
	c-0.35,2.53,0.38,4.38,2.85,5.62c3.56,1.8,6,5,8.69,7.81c1.21,1.26,2.18,1.85,3.78,1.21c0,0-0.03,0.02-0.03,0.02
	c0.45,5.58,5.61,7.22,8.69,10.64c6.45,7.17,14.46,12.67,20.73,20.07c1.54,1.82,3.86,3.33,5.56,5.34
	C160.22,258.41,161.15,260.93,163.18,258.57z"/>
    <path class="st0" d="M197.47,83.77c-0.33-0.12-0.49-0.35-0.49-0.7c0.24-1.5-0.82-2.36-1.54-3.47c-3-4.62-7.93-7.24-11.74-11.01
	c-2.78-2.76-5-7.21-9.9-7.51l0.26-0.22c0,0-0.23,0.25-0.23,0.24c0.77-2.93-1-4.89-2.99-6.28c-5.79-4.06-10.95-8.72-15.46-14.17
	c-1.38-1.66-3.17-2.94-5.59-2.56l0.23-0.24c0,0-0.2,0.27-0.2,0.27c-1.15-4.62-4.03-7.43-8.75-8.29c0,0,0.01,0.01,0.01,0.01
	c0.38-2.31-0.93-3.9-2.57-5.05c-4.78-3.37-8.47-7.91-12.87-11.68c-1.51-1.3-3.54-2.71-3.03-4.7c0.52-2.02,2.99-2.24,4.96-2.68
	c14.41-3.24,28.93-5.43,43.66-2.77c5,0.9,10.18,0.72,15.03,2.84c4.6,2.01,9.38,3.69,14.24,4.96c3.31,0.86,5.99,3.78,9.77,2.99
	c0.72,0.35,1.44,0.7,2.15,1.05c0,0,0.07,0.05,0.07,0.05c0.27-0.1,0.44,0,0.5,0.27c4.02,5.41,9.88,7.8,16.01,9.75l0.04,0.03
	c0.07,1.05,0.58,1.81,1.36,2.54c8.31,7.75,18.1,13.84,25.47,22.65c1.16,1.39,2.62,1.99,4.43,1.56c0,0-0.08-0.05-0.08-0.05
	c0.36,0.36,0.73,0.73,1.09,1.09c0,0-0.06-0.08-0.06-0.08c1.61,6.17,8.13,8.73,10.57,14.82c1.17,2.91,5.35,6.35,8.57,9.07
	c3.78,3.19,3.01,6.01-0.24,8.49c-7.42,5.67-15.29,10.8-22.47,16.75c-2.97,2.46-8.52,2.69-8.38,8.34c0,0,0.04-0.04,0.04-0.04
	c-2.27-0.6-3.55,0.7-5.01,2.21c-4.88,5.05-6.63,5.21-12.8,1.93c-0.68-0.36-1.59-0.27-2.39-0.39c0,0-0.02-0.03-0.02-0.03
	c0-1.16-0.02-2.31-0.96-3.21c-8.85-8.55-17.69-17.1-26.53-25.66C200.44,83.71,198.96,83.76,197.47,83.77z"/>
    <path class="st0" d="M228.13,194.07c-0.66,16.5-4.1,32.31-12.36,46.79c-3.54,6.2-3.66,6.04-8.71,1.23
	c-20.12-19.19-40.22-38.39-60.49-57.42c-3.01-2.83-3.17-4.35-0.13-7.32c13.58-13.25,26.95-26.73,40.25-40.26
	c2.44-2.48,3.96-2.5,6.42-0.03c5.98,6.02,11.96,12.1,18.46,17.53C224.01,164.97,228.45,178.44,228.13,194.07z"/>
    <path class="st0" d="M86.08,35.61c0.71,0.61,1.62,1.32,2.45,2.11c20.85,19.85,41.63,39.78,62.6,59.5c2.77,2.61,2.25,3.91-0.09,6.22
	c-13.75,13.55-27.45,27.16-40.98,40.92c-2.42,2.46-3.74,2.08-5.92-0.09c-6.74-6.68-13.44-13.41-20.57-19.65
	c-8.38-7.33-12.79-16.5-13.88-27.32c-2.07-20.63,1.98-40.05,12.41-58.04C83.96,36.06,84.78,35.5,86.08,35.61z"/>
    <path class="st1" d="M4.77,194.09c1.35-0.33,2.99-0.55,3.61,0.81c2.7,5.9,7.77,9.89,11.97,14.44c7.82,8.48,16.08,16.57,25.17,23.82
	c7.98,6.37,16.19,12.42,24.54,18.24c5.32,3.71,11.28,6.53,17.09,9.5c8.03,4.11,16.18,8.03,24.83,10.67
	c4.9,1.49,9.98,2.35,14.93,3.69c8.6,2.32,17.24,4.06,26.23,3.55c6.46-0.37,12.83-1.07,19.05-2.98c1.38-0.43,2.53-0.83,2.79-2.38
	c0.29-1.69-0.69-2.58-1.86-3.72c-3.22-3.13-8-4.95-8.95-10.1c6.01,3.45,10.16,8.99,15.17,13.56c2.55,2.33-0.6,2.54-1.83,2.97
	c-10.19,3.61-20.77,4.55-31.48,3.94c-26.95-1.54-51.12-11.37-73.79-25.35c-23.85-14.7-44.81-32.8-62.94-54.17
	C7.6,198.57,5.62,196.72,4.77,194.09z"/>
    <path class="st1" d="M210.28,13.72c-3.78,0.8-6.46-2.12-9.77-2.99c-4.85-1.26-9.64-2.95-14.24-4.96
	c-4.85-2.12-10.03-1.93-15.03-2.84c-14.73-2.66-29.25-0.47-43.66,2.77c-1.98,0.44-4.44,0.66-4.96,2.68
	c-0.52,1.99,1.52,3.41,3.03,4.7c4.4,3.77,8.09,8.31,12.87,11.68c1.64,1.15,2.95,2.74,2.57,5.05c-8.11-6.58-15.32-14.09-23.2-21.57
	c6.92-3.88,13.96-5.7,21.14-6.82C164.13-2.48,187.91,1.62,210.28,13.72z"/>
    <path class="st1" d="M109.14,206.76c-5.38-0.23-7.55-5.05-10.79-8.02c-9.72-8.87-18.6-18.65-28.43-27.39
	c-6.56-5.84-13.2-11.48-18.78-18.33c-2.02-2.48-4.78-3.59-7.23,0.28c-1.33,2.09-3.49,3.55-6.3,3.29c0.3-0.39,0.54-0.84,0.9-1.16
	c8.91-7.97,8.93-7.99,17.62,0.29c16.59,15.78,33.16,31.58,49.71,47.4C107.02,204.25,108.05,205.54,109.14,206.76z"/>
    <path class="st1" d="M249.31,110.06c-0.14-5.65,5.41-5.88,8.38-8.34c7.19-5.95,15.05-11.08,22.47-16.75
	c3.25-2.48,4.02-5.3,0.24-8.49c-3.22-2.72-7.4-6.16-8.57-9.07c-2.44-6.09-8.96-8.65-10.57-14.82c9.28,7.95,16.37,17.85,24.14,27.14
	c1.04,1.25,1.14,2.41-0.22,3.41C273.15,92.01,261.76,101.74,249.31,110.06z"/>
    <path class="st1" d="M163.18,258.57c-2.03,2.36-2.96-0.15-3.78-1.12c-1.7-2.01-4.02-3.52-5.56-5.34
	c-6.27-7.4-14.28-12.9-20.73-20.07c-3.08-3.42-8.24-5.06-8.69-10.64c9.63,7.71,17.96,16.81,27.04,25.11
	C155.59,250.3,159.29,254.54,163.18,258.57z"/>
    <path class="st1" d="M197.47,83.77c1.49-0.01,2.97-0.06,4.17,1.11c8.83,8.56,17.68,17.11,26.53,25.66c0.93,0.9,0.96,2.05,0.96,3.21
	c-8.23-7.66-16.48-15.29-24.68-22.99C202.04,88.51,199.79,86.1,197.47,83.77z"/>
    <path class="st1" d="M260.32,51.62c-1.81,0.44-3.27-0.17-4.43-1.56c-7.37-8.81-17.16-14.89-25.47-22.65
	c-0.78-0.73-1.29-1.49-1.36-2.54C240.7,32.36,251.15,41.24,260.32,51.62z"/>
    <path class="st1" d="M149.79,38.08c2.43-0.38,4.22,0.9,5.59,2.56c4.51,5.44,9.67,10.11,15.46,14.17c1.98,1.39,3.75,3.35,2.99,6.28
	C165.38,53.88,157.31,46.27,149.79,38.08z"/>
    <path class="st1" d="M16.68,173.39c0.5,1.51,0.69,3.41-0.96,3.83c-4.11,1.05-5.74,5.17-9.4,6.87c-2.35,1.09-4.56,3.54-1.88,6.73
	c0.81,0.96,0.67,2.14,0.36,3.29c-0.4-0.27-0.89-0.47-1.19-0.83c-4.93-5.84-4.98-5.91,0.92-10.54
	C8.55,179.58,12.17,175.91,16.68,173.39z"/>
    <path class="st1" d="M173.81,61.07c4.9,0.3,7.12,4.75,9.9,7.51c3.81,3.77,8.74,6.39,11.74,11.01c0.72,1.11,1.77,1.98,1.54,3.47
	C188.76,76.26,181.12,68.83,173.81,61.07z"/>
    <path class="st1" d="M37.13,157.01c-2.5,5.6-7.96,8.19-12.35,11.77c-2.32,1.89-3.73,6.03-8.06,4.6
	C23.14,167.44,29.94,161.98,37.13,157.01z"/>
    <path class="st1" d="M229.15,113.77c0.8,0.12,1.72,0.03,2.39,0.39c6.17,3.27,7.92,3.11,12.8-1.93c1.46-1.51,2.75-2.81,5.01-2.21
	c-3.13,3.74-7.52,5.95-11.13,9.1c-1.52,1.33-2.96,1.17-4.33-0.33C232.34,117.08,230.73,115.44,229.15,113.77z"/>
    <path class="st1" d="M124.46,221.38c-1.6,0.64-2.58,0.05-3.78-1.21c-2.69-2.81-5.13-6.01-8.69-7.81c-2.47-1.25-3.2-3.09-2.85-5.62
	C114.73,211.11,119.77,216.07,124.46,221.38z"/>
    <path class="st1" d="M229.02,24.84c-6.13-1.94-11.99-4.33-16.01-9.75C218.89,17.44,224.26,20.64,229.02,24.84z"/>
    <path class="st1" d="M141.07,29.81c4.72,0.86,7.59,3.67,8.75,8.29C146.54,35.72,143.41,33.19,141.07,29.81z"/>
    <path class="st1" d="M261.32,52.66c-0.36-0.36-0.73-0.73-1.09-1.09C260.6,51.93,260.96,52.29,261.32,52.66z"/>
    <polygon class="st1" points="212.51,14.82 212.43,14.77 212.5,14.56 "/>
</svg>
