<!-- Generator: Adobe Illustrator 23.0.1, SVG Export Plug-In  -->
<svg version="1.1" xmlns="http://www.w3.org/2000/svg" xmlns:xlink="http://www.w3.org/1999/xlink" x="0px" y="0px"
     width="503.17px" height="406px" viewBox="0 0 503.17 406" style="enable-background:new 0 0 503.17 406;" xml:space="preserve">
<style type="text/css">
	.st0{fill:#303952;}
	.st1{fill:#63CDDA;}
	.st2{fill:#786FA6;}
	.st3{fill:none;stroke:#596275;stroke-miterlimit:10;}
	.st4{fill:#C44569;}
	.st5{fill:none;stroke:#C44569;stroke-miterlimit:10;}
</style>
    <defs>
</defs>
    <g>
	<path class="st0" d="M303.22,41.79v30h-136v-30H303.22 M304.22,40.79h-138v32h138V40.79L304.22,40.79z"/>
</g>
    <g>
	<path class="st0" d="M179.68,53.86h-2.26v-1.17h5.92v1.17h-2.26v6.67h-1.39V53.86z"/>
        <path class="st0" d="M184,54.64h1.13l0.11,1.05h0.04c0.42-0.77,1.04-1.19,1.67-1.19c0.3,0,0.49,0.04,0.67,0.12l-0.24,1.2
		c-0.21-0.06-0.36-0.1-0.6-0.1c-0.47,0-1.04,0.32-1.39,1.22v3.59H184V54.64z"/>
        <path class="st0" d="M187.84,58.95c0-1.26,1.05-1.92,3.46-2.18c-0.02-0.63-0.27-1.16-1.07-1.16c-0.58,0-1.14,0.26-1.65,0.58
		l-0.51-0.92c0.65-0.41,1.48-0.77,2.42-0.77c1.47,0,2.2,0.91,2.2,2.55v3.49h-1.13l-0.11-0.65h-0.04c-0.53,0.45-1.13,0.8-1.83,0.8
		C188.55,60.68,187.84,59.98,187.84,58.95z M191.31,58.96v-1.32c-1.6,0.2-2.13,0.62-2.13,1.21c0,0.52,0.35,0.75,0.85,0.75
		C190.51,59.59,190.87,59.36,191.31,58.96z"/>
        <path class="st0" d="M194.35,54.64h1.13l0.11,0.8h0.04c0.53-0.51,1.13-0.94,1.93-0.94c1.26,0,1.81,0.85,1.81,2.34v3.69h-1.38v-3.52
		c0-0.97-0.28-1.33-0.92-1.33c-0.52,0-0.86,0.25-1.34,0.73v4.12h-1.38V54.64z"/>
        <path class="st0" d="M200.49,59.86l0.64-0.88c0.52,0.41,1.03,0.66,1.63,0.66c0.64,0,0.94-0.3,0.94-0.71c0-0.49-0.64-0.71-1.27-0.95
		c-0.77-0.29-1.65-0.73-1.65-1.72c0-1.02,0.83-1.76,2.14-1.76c0.82,0,1.48,0.33,1.96,0.71l-0.63,0.85c-0.41-0.3-0.83-0.51-1.29-0.51
		c-0.59,0-0.87,0.28-0.87,0.65c0,0.47,0.59,0.64,1.23,0.88c0.8,0.3,1.69,0.68,1.69,1.78c0,1.01-0.8,1.83-2.29,1.83
		C201.91,60.68,201.06,60.33,200.49,59.86z"/>
        <path class="st0" d="M205.93,58.95c0-1.26,1.05-1.92,3.46-2.18c-0.02-0.63-0.27-1.16-1.07-1.16c-0.58,0-1.14,0.26-1.65,0.58
		l-0.51-0.92c0.65-0.41,1.48-0.77,2.42-0.77c1.47,0,2.2,0.91,2.2,2.55v3.49h-1.13l-0.11-0.65h-0.04c-0.53,0.45-1.13,0.8-1.83,0.8
		C206.64,60.68,205.93,59.98,205.93,58.95z M209.39,58.96v-1.32c-1.6,0.2-2.13,0.62-2.13,1.21c0,0.52,0.35,0.75,0.85,0.75
		C208.59,59.59,208.95,59.36,209.39,58.96z"/>
        <path class="st0" d="M212.05,57.59c0-1.96,1.39-3.09,2.96-3.09c0.75,0,1.3,0.29,1.72,0.66l-0.67,0.9
		c-0.31-0.27-0.61-0.43-0.98-0.43c-0.95,0-1.61,0.79-1.61,1.97s0.65,1.96,1.56,1.96c0.46,0,0.88-0.23,1.22-0.51l0.56,0.91
		c-0.55,0.49-1.25,0.72-1.92,0.72C213.28,60.68,212.05,59.55,212.05,57.59z"/>
        <path class="st0" d="M218.07,58.55v-2.81h-0.84v-1.04l0.91-0.06l0.16-1.61h1.15v1.61h1.5v1.1h-1.5v2.8c0,0.69,0.27,1.03,0.83,1.03
		c0.2,0,0.44-0.07,0.61-0.13l0.24,1.02c-0.32,0.11-0.73,0.22-1.2,0.22C218.57,60.68,218.07,59.82,218.07,58.55z"/>
        <path class="st0" d="M222.03,52.83c0-0.47,0.36-0.78,0.85-0.78c0.49,0,0.85,0.32,0.85,0.78c0,0.46-0.36,0.78-0.85,0.78
		C222.4,53.61,222.03,53.29,222.03,52.83z M222.19,54.64h1.38v5.89h-1.38V54.64z"/>
        <path class="st0" d="M224.95,57.59c0-1.96,1.33-3.09,2.8-3.09c1.47,0,2.8,1.13,2.8,3.09c0,1.95-1.33,3.08-2.8,3.08
		C226.28,60.68,224.95,59.55,224.95,57.59z M229.13,57.59c0-1.18-0.52-1.97-1.38-1.97c-0.86,0-1.38,0.79-1.38,1.97
		s0.52,1.96,1.38,1.96C228.61,59.55,229.13,58.77,229.13,57.59z"/>
        <path class="st0" d="M231.92,54.64h1.13l0.11,0.8h0.04c0.53-0.51,1.13-0.94,1.93-0.94c1.26,0,1.81,0.85,1.81,2.34v3.69h-1.38v-3.52
		c0-0.97-0.28-1.33-0.92-1.33c-0.52,0-0.86,0.25-1.34,0.73v4.12h-1.38V54.64z"/>
        <path class="st0" d="M238.06,59.86l0.64-0.88c0.52,0.41,1.03,0.66,1.63,0.66c0.64,0,0.94-0.3,0.94-0.71c0-0.49-0.64-0.71-1.27-0.95
		c-0.77-0.29-1.65-0.73-1.65-1.72c0-1.02,0.83-1.76,2.14-1.76c0.82,0,1.48,0.33,1.96,0.71l-0.63,0.85c-0.41-0.3-0.83-0.51-1.29-0.51
		c-0.59,0-0.87,0.28-0.87,0.65c0,0.47,0.59,0.64,1.23,0.88c0.8,0.3,1.69,0.68,1.69,1.78c0,1.01-0.8,1.83-2.29,1.83
		C239.48,60.68,238.63,60.33,238.06,59.86z"/>
</g>
    <g>
	<path class="st0" d="M179.26,211.72h2.51c1.61,0,2.8,0.49,2.8,1.93c0,0.74-0.4,1.46-1.09,1.7v0.05c0.87,0.2,1.51,0.8,1.51,1.86
		c0,1.57-1.29,2.3-3.01,2.3h-2.71V211.72z M181.65,214.96c1.09,0,1.56-0.43,1.56-1.11c0-0.76-0.51-1.04-1.53-1.04h-1.02v2.15H181.65
		z M181.83,218.48c1.15,0,1.79-0.41,1.79-1.29c0-0.83-0.62-1.19-1.79-1.19h-1.18v2.48H181.83z"/>
        <path class="st0" d="M186.31,218.05v-6.96h1.38v7.03c0,0.34,0.15,0.46,0.3,0.46c0.06,0,0.11,0,0.22-0.02l0.17,1.03
		c-0.17,0.07-0.4,0.12-0.73,0.12C186.67,219.71,186.31,219.08,186.31,218.05z"/>
        <path class="st0" d="M189.17,216.62c0-1.96,1.33-3.09,2.8-3.09s2.8,1.13,2.8,3.09c0,1.95-1.33,3.08-2.8,3.08
		S189.17,218.58,189.17,216.62z M193.36,216.62c0-1.18-0.52-1.97-1.38-1.97c-0.86,0-1.38,0.79-1.38,1.97c0,1.18,0.52,1.96,1.38,1.96
		C192.84,218.58,193.36,217.8,193.36,216.62z"/>
        <path class="st0" d="M195.75,220.64c0-0.5,0.31-0.93,0.85-1.26v-0.05c-0.3-0.2-0.53-0.51-0.53-0.98c0-0.46,0.31-0.86,0.65-1.1
		v-0.05c-0.4-0.3-0.78-0.86-0.78-1.55c0-1.35,1.09-2.12,2.33-2.12c0.33,0,0.63,0.06,0.87,0.14h2.11v1.03h-1.07
		c0.19,0.22,0.34,0.58,0.34,0.99c0,1.31-0.99,2.01-2.24,2.01c-0.25,0-0.53-0.05-0.8-0.16c-0.18,0.15-0.29,0.3-0.29,0.56
		c0,0.33,0.24,0.53,0.96,0.53h1.05c1.41,0,2.16,0.44,2.16,1.45c0,1.16-1.22,2.08-3.14,2.08
		C196.79,222.17,195.75,221.67,195.75,220.64z M200.01,220.32c0-0.46-0.36-0.59-1.04-0.59h-0.81c-0.32,0-0.57-0.02-0.8-0.08
		c-0.32,0.24-0.46,0.5-0.46,0.78c0,0.54,0.58,0.85,1.5,0.85C199.36,221.27,200.01,220.83,200.01,220.32z M199.29,215.65
		c0-0.74-0.45-1.16-1.02-1.16s-1.02,0.42-1.02,1.16c0,0.75,0.46,1.18,1.02,1.18C198.83,216.83,199.29,216.39,199.29,215.65z"/>
        <path class="st0" d="M204.91,211.72h2.47c1.74,0,3.03,0.6,3.03,2.42c0,1.75-1.3,2.54-2.98,2.54h-1.13v2.88h-1.39V211.72z
		 M207.31,215.57c1.17,0,1.73-0.46,1.73-1.43c0-0.97-0.61-1.3-1.77-1.3h-0.96v2.73H207.31z"/>
        <path class="st0" d="M211.12,216.62c0-1.96,1.33-3.09,2.8-3.09c1.47,0,2.8,1.13,2.8,3.09c0,1.95-1.33,3.08-2.8,3.08
		C212.45,219.71,211.12,218.58,211.12,216.62z M215.3,216.62c0-1.18-0.52-1.97-1.38-1.97c-0.86,0-1.38,0.79-1.38,1.97
		c0,1.18,0.52,1.96,1.38,1.96C214.79,218.58,215.3,217.8,215.3,216.62z"/>
        <path class="st0" d="M217.46,218.89l0.64-0.88c0.52,0.41,1.03,0.66,1.63,0.66c0.64,0,0.94-0.3,0.94-0.71
		c0-0.49-0.64-0.71-1.27-0.95c-0.77-0.29-1.65-0.73-1.65-1.72c0-1.02,0.83-1.76,2.14-1.76c0.82,0,1.48,0.33,1.96,0.71l-0.63,0.85
		c-0.41-0.3-0.83-0.51-1.29-0.51c-0.59,0-0.87,0.28-0.87,0.65c0,0.47,0.59,0.64,1.23,0.88c0.8,0.3,1.69,0.68,1.69,1.78
		c0,1.01-0.8,1.83-2.29,1.83C218.89,219.71,218.04,219.36,217.46,218.89z"/>
        <path class="st0" d="M223.19,217.58v-2.81h-0.84v-1.04l0.91-0.06l0.16-1.61h1.15v1.61h1.5v1.1h-1.5v2.8c0,0.69,0.27,1.03,0.83,1.03
		c0.2,0,0.44-0.07,0.61-0.13l0.24,1.02c-0.32,0.11-0.73,0.22-1.2,0.22C223.69,219.71,223.19,218.85,223.19,217.58z"/>
        <path class="st0" d="M226.61,218.89l0.64-0.88c0.52,0.41,1.03,0.66,1.63,0.66c0.64,0,0.94-0.3,0.94-0.71
		c0-0.49-0.64-0.71-1.27-0.95c-0.77-0.29-1.65-0.73-1.65-1.72c0-1.02,0.83-1.76,2.14-1.76c0.82,0,1.48,0.33,1.96,0.71l-0.63,0.85
		c-0.41-0.3-0.83-0.51-1.29-0.51c-0.59,0-0.87,0.28-0.87,0.65c0,0.47,0.59,0.64,1.23,0.88c0.8,0.3,1.69,0.68,1.69,1.78
		c0,1.01-0.8,1.83-2.29,1.83C228.03,219.71,227.18,219.36,226.61,218.89z"/>
</g>
    <g>
	<path class="st0" d="M304.39,200.82v30h-136v-30H304.39 M305.39,199.82h-138v32h138V199.82L305.39,199.82z"/>
</g>
    <g>
	<path class="st0" d="M179.26,250.72h2.64c1.63,0,2.89,0.58,2.89,2.33c0,1.69-1.26,2.45-2.89,2.45h-1.25v3.07h-1.39V250.72z
		 M181.76,254.39c1.07,0,1.66-0.45,1.66-1.34c0-0.9-0.59-1.21-1.66-1.21h-1.11v2.55H181.76z M181.65,255.13l1.01-0.83l2.45,4.27
		h-1.56L181.65,255.13z"/>
        <path class="st0" d="M185.74,255.62c0-1.91,1.33-3.09,2.72-3.09c1.59,0,2.43,1.15,2.43,2.8c0,0.26-0.03,0.53-0.06,0.67h-3.74
		c0.12,1.05,0.79,1.64,1.74,1.64c0.5,0,0.94-0.16,1.37-0.43l0.47,0.86c-0.56,0.38-1.27,0.64-2.02,0.64
		C187.02,258.71,185.74,257.57,185.74,255.62z M189.69,255.06c0-0.91-0.4-1.46-1.21-1.46c-0.69,0-1.29,0.51-1.41,1.46H189.69z"/>
        <path class="st0" d="M191.48,252.67h1.4l0.94,3.06c0.16,0.58,0.34,1.18,0.5,1.78h0.05c0.16-0.59,0.34-1.2,0.5-1.78l0.94-3.06h1.33
		l-2,5.89h-1.6L191.48,252.67z"/>
        <path class="st0" d="M197.99,250.86c0-0.47,0.36-0.78,0.85-0.78c0.49,0,0.85,0.32,0.85,0.78c0,0.46-0.36,0.78-0.85,0.78
		C198.36,251.64,197.99,251.32,197.99,250.86z M198.15,252.67h1.38v5.89h-1.38V252.67z"/>
        <path class="st0" d="M200.91,255.62c0-1.91,1.33-3.09,2.72-3.09c1.59,0,2.43,1.15,2.43,2.8c0,0.26-0.03,0.53-0.06,0.67h-3.74
		c0.12,1.05,0.79,1.64,1.74,1.64c0.5,0,0.94-0.16,1.37-0.43l0.47,0.86c-0.56,0.38-1.27,0.64-2.02,0.64
		C202.18,258.71,200.91,257.57,200.91,255.62z M204.86,255.06c0-0.91-0.4-1.46-1.21-1.46c-0.69,0-1.29,0.51-1.41,1.46H204.86z"/>
        <path class="st0" d="M206.79,252.67h1.39l0.71,3.06c0.12,0.57,0.2,1.12,0.31,1.7h0.05c0.12-0.58,0.23-1.14,0.37-1.7l0.77-3.06h1.25
		l0.79,3.06c0.14,0.57,0.26,1.12,0.39,1.7h0.05c0.12-0.58,0.2-1.13,0.32-1.7l0.71-3.06h1.29l-1.49,5.89h-1.64l-0.69-2.75
		c-0.13-0.55-0.23-1.09-0.35-1.71h-0.05c-0.12,0.62-0.22,1.17-0.35,1.72l-0.67,2.74h-1.59L206.79,252.67z"/>
        <path class="st0" d="M215.77,257.89l0.64-0.88c0.52,0.41,1.03,0.66,1.63,0.66c0.64,0,0.94-0.3,0.94-0.71
		c0-0.49-0.64-0.71-1.27-0.95c-0.77-0.29-1.65-0.73-1.65-1.72c0-1.02,0.83-1.76,2.14-1.76c0.82,0,1.48,0.33,1.96,0.71l-0.63,0.85
		c-0.41-0.3-0.83-0.51-1.29-0.51c-0.59,0-0.87,0.28-0.87,0.65c0,0.47,0.59,0.64,1.23,0.88c0.8,0.3,1.69,0.68,1.69,1.78
		c0,1.01-0.8,1.83-2.29,1.83C217.2,258.71,216.35,258.36,215.77,257.89z"/>
</g>
    <g>
	<path class="st0" d="M304.39,239.82v30h-136v-30H304.39 M305.39,238.82h-138v32h138V238.82L305.39,238.82z"/>
</g>
    <g>
	<path class="st0" d="M179.74,289.72h1.63l2.56,7.84h-1.47l-1.19-4.17c-0.25-0.83-0.48-1.72-0.71-2.58h-0.05
		c-0.22,0.87-0.45,1.76-0.7,2.58l-1.2,4.17h-1.42L179.74,289.72z M178.69,294.35h3.69v1.09h-3.69V294.35z"/>
        <path class="st0" d="M184.39,294.62c0-1.96,1.39-3.09,2.96-3.09c0.75,0,1.3,0.29,1.72,0.66l-0.67,0.9
		c-0.31-0.27-0.61-0.43-0.98-0.43c-0.95,0-1.61,0.79-1.61,1.97c0,1.18,0.65,1.96,1.56,1.96c0.46,0,0.88-0.23,1.22-0.51l0.56,0.91
		c-0.55,0.49-1.25,0.72-1.92,0.72C185.62,297.71,184.39,296.58,184.39,294.62z"/>
        <path class="st0" d="M189.65,294.62c0-1.96,1.39-3.09,2.96-3.09c0.75,0,1.3,0.29,1.72,0.66l-0.67,0.9
		c-0.31-0.27-0.61-0.43-0.98-0.43c-0.95,0-1.61,0.79-1.61,1.97c0,1.18,0.65,1.96,1.56,1.96c0.46,0,0.88-0.23,1.22-0.51l0.56,0.91
		c-0.55,0.49-1.25,0.72-1.92,0.72C190.88,297.71,189.65,296.58,189.65,294.62z"/>
        <path class="st0" d="M194.9,294.62c0-1.96,1.33-3.09,2.8-3.09s2.8,1.13,2.8,3.09c0,1.95-1.33,3.08-2.8,3.08
		S194.9,296.58,194.9,294.62z M199.09,294.62c0-1.18-0.52-1.97-1.38-1.97c-0.86,0-1.38,0.79-1.38,1.97c0,1.18,0.52,1.96,1.38,1.96
		C198.57,296.58,199.09,295.8,199.09,294.62z"/>
        <path class="st0" d="M201.88,291.67h1.13l0.11,0.8h0.04c0.5-0.52,1.07-0.95,1.81-0.95c0.86,0,1.36,0.39,1.63,1.06
		c0.56-0.6,1.15-1.06,1.9-1.06c1.24,0,1.82,0.85,1.82,2.34v3.69h-1.38v-3.52c0-0.97-0.29-1.33-0.91-1.33
		c-0.37,0-0.78,0.24-1.23,0.73v4.12h-1.38v-3.52c0-0.97-0.29-1.33-0.91-1.33c-0.36,0-0.78,0.24-1.23,0.73v4.12h-1.38V291.67z"/>
        <path class="st0" d="M212,291.67h1.13l0.11,0.8h0.04c0.5-0.52,1.07-0.95,1.81-0.95c0.86,0,1.36,0.39,1.63,1.06
		c0.56-0.6,1.15-1.06,1.9-1.06c1.24,0,1.82,0.85,1.82,2.34v3.69h-1.38v-3.52c0-0.97-0.29-1.33-0.91-1.33
		c-0.37,0-0.78,0.24-1.23,0.73v4.12h-1.38v-3.52c0-0.97-0.29-1.33-0.91-1.33c-0.36,0-0.78,0.24-1.23,0.73v4.12H212V291.67z"/>
        <path class="st0" d="M221.72,294.62c0-1.96,1.33-3.09,2.8-3.09s2.8,1.13,2.8,3.09c0,1.95-1.33,3.08-2.8,3.08
		S221.72,296.58,221.72,294.62z M225.91,294.62c0-1.18-0.52-1.97-1.38-1.97c-0.86,0-1.38,0.79-1.38,1.97c0,1.18,0.52,1.96,1.38,1.96
		C225.39,296.58,225.91,295.8,225.91,294.62z"/>
        <path class="st0" d="M228.34,294.62c0-1.92,1.2-3.09,2.49-3.09c0.67,0,1.09,0.25,1.54,0.65l-0.05-0.95v-2.13h1.38v8.47h-1.13
		l-0.11-0.64h-0.04c-0.44,0.44-1.04,0.78-1.67,0.78C229.29,297.71,228.34,296.57,228.34,294.62z M232.33,295.91v-2.74
		c-0.4-0.36-0.8-0.49-1.2-0.49c-0.75,0-1.37,0.71-1.37,1.94c0,1.28,0.49,1.96,1.34,1.96C231.55,296.57,231.94,296.37,232.33,295.91z
		"/>
        <path class="st0" d="M235.15,295.98c0-1.26,1.05-1.92,3.46-2.18c-0.02-0.63-0.27-1.16-1.07-1.16c-0.58,0-1.14,0.26-1.65,0.58
		l-0.51-0.92c0.65-0.41,1.48-0.77,2.42-0.77c1.47,0,2.2,0.91,2.2,2.55v3.49h-1.13l-0.11-0.65h-0.04c-0.53,0.45-1.13,0.8-1.83,0.8
		C235.86,297.71,235.15,297.01,235.15,295.98z M238.61,295.99v-1.32c-1.6,0.2-2.13,0.62-2.13,1.21c0,0.52,0.35,0.75,0.85,0.75
		C237.81,296.62,238.18,296.39,238.61,295.99z"/>
        <path class="st0" d="M241.67,295.58v-2.81h-0.84v-1.04l0.91-0.06l0.16-1.61h1.15v1.61h1.5v1.1h-1.5v2.8c0,0.69,0.27,1.03,0.83,1.03
		c0.2,0,0.44-0.07,0.61-0.13l0.24,1.02c-0.32,0.11-0.73,0.22-1.2,0.22C242.18,297.71,241.67,296.85,241.67,295.58z"/>
        <path class="st0" d="M245.64,289.86c0-0.47,0.36-0.78,0.85-0.78c0.49,0,0.85,0.32,0.85,0.78c0,0.46-0.36,0.78-0.85,0.78
		C246.01,290.64,245.64,290.32,245.64,289.86z M245.8,291.67h1.38v5.89h-1.38V291.67z"/>
        <path class="st0" d="M248.56,294.62c0-1.96,1.33-3.09,2.8-3.09s2.8,1.13,2.8,3.09c0,1.95-1.33,3.08-2.8,3.08
		S248.56,296.58,248.56,294.62z M252.74,294.62c0-1.18-0.52-1.97-1.38-1.97s-1.38,0.79-1.38,1.97c0,1.18,0.52,1.96,1.38,1.96
		S252.74,295.8,252.74,294.62z"/>
        <path class="st0" d="M255.53,291.67h1.13l0.11,0.8h0.04c0.53-0.51,1.13-0.94,1.93-0.94c1.26,0,1.81,0.85,1.81,2.34v3.69h-1.38
		v-3.52c0-0.97-0.28-1.33-0.92-1.33c-0.52,0-0.86,0.25-1.34,0.73v4.12h-1.38V291.67z"/>
        <path class="st0" d="M261.67,296.89l0.64-0.88c0.52,0.41,1.03,0.66,1.63,0.66c0.64,0,0.94-0.3,0.94-0.71
		c0-0.49-0.64-0.71-1.27-0.95c-0.77-0.29-1.65-0.73-1.65-1.72c0-1.02,0.83-1.76,2.14-1.76c0.82,0,1.48,0.33,1.96,0.71l-0.63,0.85
		c-0.41-0.3-0.83-0.51-1.29-0.51c-0.59,0-0.87,0.28-0.87,0.65c0,0.47,0.59,0.64,1.23,0.88c0.8,0.3,1.69,0.68,1.69,1.78
		c0,1.01-0.8,1.83-2.29,1.83C263.09,297.71,262.24,297.36,261.67,296.89z"/>
</g>
    <g>
	<path class="st0" d="M303.33,278.82v30h-136v-30H303.33 M304.33,277.82h-138v32h138V277.82L304.33,277.82z"/>
</g>
    <g>
	<path class="st0" d="M178.2,172.72h4.72v1.17h-3.33v2.01h2.82v1.17h-2.82v2.32h3.45v1.17h-4.84V172.72z"/>
        <path class="st0" d="M183.69,174.67h1.4l0.94,3.06c0.16,0.58,0.34,1.19,0.5,1.78h0.05c0.16-0.59,0.34-1.19,0.5-1.78l0.94-3.06h1.33
		l-2,5.89h-1.6L183.69,174.67z"/>
        <path class="st0" d="M189.9,177.62c0-1.91,1.33-3.09,2.72-3.09c1.59,0,2.43,1.15,2.43,2.8c0,0.26-0.03,0.53-0.06,0.67h-3.74
		c0.12,1.05,0.79,1.64,1.74,1.64c0.5,0,0.94-0.16,1.37-0.43l0.47,0.86c-0.56,0.38-1.27,0.64-2.02,0.64
		C191.18,180.71,189.9,179.57,189.9,177.62z M193.85,177.06c0-0.91-0.4-1.46-1.21-1.46c-0.69,0-1.29,0.51-1.41,1.46H193.85z"/>
        <path class="st0" d="M196.37,174.67h1.13l0.11,0.8h0.04c0.53-0.51,1.13-0.94,1.93-0.94c1.26,0,1.81,0.85,1.81,2.34v3.69h-1.38
		v-3.52c0-0.97-0.28-1.33-0.92-1.33c-0.52,0-0.86,0.25-1.34,0.73v4.12h-1.38V174.67z"/>
        <path class="st0" d="M203.3,178.58v-2.81h-0.84v-1.04l0.91-0.06l0.16-1.61h1.15v1.61h1.5v1.1h-1.5v2.8c0,0.69,0.27,1.03,0.83,1.03
		c0.2,0,0.44-0.07,0.61-0.13l0.24,1.02c-0.32,0.11-0.73,0.22-1.2,0.22C203.8,180.71,203.3,179.85,203.3,178.58z"/>
        <path class="st0" d="M206.72,179.89l0.64-0.88c0.52,0.41,1.03,0.66,1.63,0.66c0.64,0,0.94-0.3,0.94-0.71
		c0-0.49-0.64-0.71-1.27-0.95c-0.77-0.29-1.65-0.73-1.65-1.72c0-1.02,0.83-1.76,2.14-1.76c0.82,0,1.48,0.33,1.96,0.71l-0.63,0.85
		c-0.41-0.3-0.83-0.51-1.29-0.51c-0.59,0-0.87,0.28-0.87,0.65c0,0.47,0.59,0.64,1.23,0.88c0.8,0.3,1.69,0.68,1.69,1.78
		c0,1.01-0.8,1.83-2.29,1.83C208.14,180.71,207.29,180.36,206.72,179.89z"/>
</g>
    <g>
	<path class="st0" d="M303.33,161.82v30h-136v-30H303.33 M304.33,160.82h-138v32h138V160.82L304.33,160.82z"/>
</g>
    <g>
	<path class="st0" d="M178.32,93.06h2.47c1.74,0,3.03,0.6,3.03,2.42c0,1.75-1.3,2.54-2.98,2.54h-1.13v2.88h-1.39V93.06z
		 M180.72,96.9c1.17,0,1.73-0.47,1.73-1.43c0-0.97-0.61-1.3-1.77-1.3h-0.96v2.73H180.72z"/>
        <path class="st0" d="M185.18,95.01h1.13l0.11,1.05h0.04c0.42-0.77,1.04-1.19,1.67-1.19c0.3,0,0.49,0.04,0.67,0.12l-0.24,1.2
		c-0.21-0.06-0.36-0.1-0.6-0.1c-0.47,0-1.04,0.32-1.39,1.22v3.59h-1.38V95.01z"/>
        <path class="st0" d="M189.15,97.96c0-1.96,1.33-3.09,2.8-3.09s2.8,1.13,2.8,3.09c0,1.95-1.33,3.08-2.8,3.08
		S189.15,99.91,189.15,97.96z M193.33,97.96c0-1.18-0.52-1.97-1.38-1.97c-0.86,0-1.38,0.79-1.38,1.97s0.52,1.96,1.38,1.96
		C192.81,99.92,193.33,99.14,193.33,97.96z"/>
        <path class="st0" d="M196.12,95.01h1.13l0.11,0.8h0.04c0.5-0.52,1.07-0.95,1.81-0.95c0.86,0,1.36,0.39,1.63,1.06
		c0.56-0.6,1.15-1.06,1.9-1.06c1.24,0,1.82,0.85,1.82,2.34v3.69h-1.38v-3.52c0-0.97-0.29-1.33-0.91-1.33
		c-0.37,0-0.78,0.24-1.23,0.73v4.12h-1.38v-3.52c0-0.97-0.29-1.33-0.91-1.33c-0.36,0-0.78,0.24-1.23,0.73v4.12h-1.38V95.01z"/>
        <path class="st0" d="M205.85,97.96c0-1.96,1.33-3.09,2.8-3.09c1.47,0,2.8,1.13,2.8,3.09c0,1.95-1.33,3.08-2.8,3.08
		C207.18,101.04,205.85,99.91,205.85,97.96z M210.03,97.96c0-1.18-0.52-1.97-1.38-1.97c-0.86,0-1.38,0.79-1.38,1.97
		s0.52,1.96,1.38,1.96C209.52,99.92,210.03,99.14,210.03,97.96z"/>
        <path class="st0" d="M214.86,97c0-2.57,1.61-4.09,3.59-4.09c0.98,0,1.77,0.47,2.26,0.99l-0.74,0.9c-0.4-0.4-0.87-0.68-1.49-0.68
		c-1.28,0-2.19,1.08-2.19,2.84c0,1.79,0.84,2.87,2.16,2.87c0.7,0,1.23-0.32,1.67-0.81l0.74,0.87c-0.64,0.74-1.45,1.14-2.47,1.14
		C216.43,101.04,214.86,99.6,214.86,97z"/>
        <path class="st0" d="M221.68,97.96c0-1.96,1.33-3.09,2.8-3.09c1.47,0,2.8,1.13,2.8,3.09c0,1.95-1.33,3.08-2.8,3.08
		C223.01,101.04,221.68,99.91,221.68,97.96z M225.86,97.96c0-1.18-0.52-1.97-1.38-1.97c-0.86,0-1.38,0.79-1.38,1.97
		s0.52,1.96,1.38,1.96C225.34,99.92,225.86,99.14,225.86,97.96z"/>
        <path class="st0" d="M228.3,97.96c0-1.92,1.2-3.09,2.49-3.09c0.67,0,1.09,0.25,1.54,0.65l-0.05-0.95v-2.13h1.38v8.47h-1.13
		l-0.11-0.64h-0.04c-0.44,0.44-1.04,0.78-1.67,0.78C229.24,101.04,228.3,99.9,228.3,97.96z M232.28,99.24V96.5
		c-0.4-0.36-0.8-0.49-1.2-0.49c-0.75,0-1.37,0.71-1.37,1.94c0,1.28,0.49,1.96,1.34,1.96C231.51,99.9,231.89,99.7,232.28,99.24z"/>
        <path class="st0" d="M235.03,97.96c0-1.91,1.33-3.09,2.72-3.09c1.59,0,2.43,1.15,2.43,2.8c0,0.26-0.03,0.53-0.06,0.67h-3.74
		c0.12,1.05,0.79,1.64,1.74,1.64c0.5,0,0.94-0.16,1.37-0.43l0.47,0.86c-0.56,0.38-1.27,0.64-2.02,0.64
		C236.31,101.04,235.03,99.9,235.03,97.96z M238.99,97.39c0-0.91-0.4-1.46-1.21-1.46c-0.69,0-1.29,0.51-1.41,1.46H238.99z"/>
        <path class="st0" d="M240.92,100.22l0.64-0.88c0.52,0.41,1.03,0.66,1.63,0.66c0.64,0,0.94-0.3,0.94-0.71
		c0-0.49-0.64-0.71-1.27-0.95c-0.77-0.29-1.65-0.73-1.65-1.72c0-1.02,0.83-1.76,2.14-1.76c0.82,0,1.48,0.33,1.96,0.71l-0.63,0.85
		c-0.41-0.3-0.83-0.51-1.29-0.51c-0.59,0-0.87,0.28-0.87,0.65c0,0.47,0.59,0.64,1.23,0.88c0.8,0.3,1.69,0.68,1.69,1.78
		c0,1.01-0.8,1.83-2.29,1.83C242.35,101.04,241.5,100.7,240.92,100.22z"/>
</g>
    <g>
	<path class="st0" d="M303.44,82.15v30h-136v-30H303.44 M304.44,81.15h-138v32h138V81.15L304.44,81.15z"/>
</g>
    <g>
	<path class="st0" d="M177.9,136.27c0-2.57,1.63-4.09,3.71-4.09c1.11,0,1.88,0.49,2.37,0.99l-0.74,0.9
		c-0.39-0.38-0.85-0.68-1.58-0.68c-1.39,0-2.33,1.08-2.33,2.84c0,1.79,0.83,2.87,2.4,2.87c0.44,0,0.87-0.13,1.12-0.35v-1.69h-1.48
		v-1.14h2.73v3.46c-0.52,0.53-1.43,0.93-2.5,0.93C179.48,140.31,177.9,138.87,177.9,136.27z"/>
        <path class="st0" d="M185.57,132.47c0-0.47,0.36-0.78,0.85-0.78c0.49,0,0.85,0.32,0.85,0.78c0,0.46-0.36,0.78-0.85,0.78
		C185.94,133.25,185.57,132.92,185.57,132.47z M185.73,134.28h1.38v5.89h-1.38V134.28z"/>
        <path class="st0" d="M192.45,138.18v-2.81h-4.13v-1.04l0.86-0.06h3.34l0.16-1.61h1.15v1.61h1.5v1.1h-1.5v2.8
		c0,0.69,0.27,1.03,0.83,1.03c0.2,0,0.44-0.07,0.61-0.13l0.24,1.02c-0.32,0.11-0.73,0.22-1.2,0.22
		C192.95,140.31,192.45,139.46,192.45,138.18z M189.11,133.67c0-1.22,0.56-2.12,1.95-2.12c0.43,0,0.82,0.1,1.08,0.21l-0.26,1.03
		c-0.21-0.09-0.44-0.14-0.64-0.14c-0.49,0-0.75,0.31-0.75,0.99v6.52h-1.38V133.67z"/>
        <path class="st0" d="M198.69,136.27c0-2.57,1.61-4.09,3.59-4.09c0.98,0,1.77,0.47,2.26,0.99l-0.74,0.9
		c-0.4-0.4-0.87-0.68-1.49-0.68c-1.28,0-2.19,1.08-2.19,2.84c0,1.79,0.84,2.87,2.16,2.87c0.7,0,1.23-0.32,1.67-0.81l0.74,0.87
		c-0.64,0.74-1.45,1.14-2.47,1.14C200.25,140.31,198.69,138.87,198.69,136.27z"/>
        <path class="st0" d="M205.58,138.59c0-1.26,1.05-1.92,3.46-2.18c-0.02-0.63-0.27-1.16-1.07-1.16c-0.58,0-1.14,0.26-1.65,0.58
		l-0.51-0.92c0.65-0.41,1.48-0.77,2.42-0.77c1.47,0,2.2,0.91,2.2,2.55v3.49h-1.13l-0.11-0.65h-0.04c-0.53,0.45-1.13,0.8-1.83,0.8
		C206.29,140.31,205.58,139.61,205.58,138.59z M209.04,138.59v-1.32c-1.6,0.2-2.13,0.62-2.13,1.21c0,0.52,0.35,0.75,0.85,0.75
		C208.24,139.23,208.6,138.99,209.04,138.59z"/>
        <path class="st0" d="M212.08,134.28h1.13l0.11,1.05h0.04c0.42-0.77,1.04-1.19,1.67-1.19c0.3,0,0.49,0.04,0.67,0.12l-0.24,1.2
		c-0.21-0.06-0.36-0.1-0.6-0.1c-0.47,0-1.04,0.32-1.39,1.22v3.59h-1.38V134.28z"/>
        <path class="st0" d="M216.08,137.23c0-1.92,1.2-3.09,2.49-3.09c0.67,0,1.09,0.25,1.54,0.65l-0.05-0.95v-2.13h1.38v8.47h-1.13
		l-0.11-0.64h-0.04c-0.44,0.44-1.04,0.78-1.67,0.78C217.03,140.31,216.08,139.17,216.08,137.23z M220.07,138.51v-2.74
		c-0.4-0.36-0.8-0.49-1.2-0.49c-0.75,0-1.37,0.71-1.37,1.94c0,1.28,0.49,1.96,1.34,1.96C219.29,139.17,219.68,138.97,220.07,138.51z
		"/>
        <path class="st0" d="M222.62,139.49l0.64-0.88c0.52,0.41,1.03,0.66,1.63,0.66c0.64,0,0.94-0.3,0.94-0.71
		c0-0.49-0.64-0.71-1.27-0.95c-0.77-0.29-1.65-0.73-1.65-1.72c0-1.02,0.83-1.76,2.14-1.76c0.82,0,1.48,0.33,1.96,0.71l-0.63,0.85
		c-0.41-0.3-0.83-0.51-1.29-0.51c-0.59,0-0.87,0.28-0.87,0.65c0,0.47,0.59,0.64,1.23,0.88c0.8,0.3,1.69,0.68,1.69,1.78
		c0,1.01-0.8,1.83-2.29,1.83C224.05,140.31,223.2,139.97,222.62,139.49z"/>
</g>
    <g>
	<path class="st0" d="M303.44,121.42v30h-136v-30H303.44 M304.44,120.42h-138v32h138V120.42L304.44,120.42z"/>
</g>
    <g>
	<path class="st0" d="M179.79,372.32h-2.26v-1.17h5.92v1.17h-2.26v6.67h-1.39V372.32z"/>
        <path class="st0" d="M184.11,373.1h1.13l0.11,1.05h0.04c0.42-0.77,1.04-1.19,1.67-1.19c0.3,0,0.49,0.04,0.67,0.12l-0.24,1.2
		c-0.21-0.06-0.36-0.1-0.6-0.1c-0.47,0-1.04,0.32-1.39,1.22v3.59h-1.38V373.1z"/>
        <path class="st0" d="M187.96,377.41c0-1.26,1.05-1.92,3.46-2.18c-0.02-0.63-0.27-1.16-1.07-1.16c-0.58,0-1.14,0.26-1.65,0.58
		l-0.51-0.92c0.65-0.41,1.48-0.77,2.42-0.77c1.47,0,2.2,0.91,2.2,2.55v3.49h-1.13l-0.11-0.65h-0.04c-0.53,0.45-1.13,0.8-1.83,0.8
		C188.67,379.13,187.96,378.43,187.96,377.41z M191.42,377.41v-1.32c-1.6,0.2-2.13,0.62-2.13,1.21c0,0.52,0.35,0.75,0.85,0.75
		C190.62,378.05,190.98,377.82,191.42,377.41z"/>
        <path class="st0" d="M194.46,373.1h1.13l0.11,0.8h0.04c0.53-0.51,1.13-0.94,1.93-0.94c1.26,0,1.81,0.85,1.81,2.34v3.69h-1.38v-3.52
		c0-0.97-0.28-1.33-0.92-1.33c-0.52,0-0.86,0.25-1.34,0.73v4.12h-1.38V373.1z"/>
        <path class="st0" d="M200.6,378.31l0.64-0.88c0.52,0.41,1.03,0.66,1.63,0.66c0.64,0,0.94-0.3,0.94-0.71c0-0.49-0.64-0.71-1.27-0.96
		c-0.77-0.29-1.65-0.73-1.65-1.72c0-1.02,0.83-1.76,2.14-1.76c0.82,0,1.48,0.33,1.96,0.71l-0.63,0.85c-0.41-0.3-0.83-0.51-1.29-0.51
		c-0.59,0-0.87,0.28-0.87,0.65c0,0.47,0.59,0.64,1.23,0.88c0.8,0.3,1.69,0.68,1.69,1.78c0,1.01-0.8,1.83-2.29,1.83
		C202.02,379.13,201.17,378.79,200.6,378.31z"/>
        <path class="st0" d="M206.36,377.47v-6.96h1.38v7.03c0,0.34,0.15,0.46,0.3,0.46c0.06,0,0.11,0,0.22-0.02l0.17,1.03
		c-0.17,0.07-0.4,0.12-0.73,0.12C206.72,379.13,206.36,378.5,206.36,377.47z"/>
        <path class="st0" d="M209.29,377.41c0-1.26,1.05-1.92,3.46-2.18c-0.02-0.63-0.27-1.16-1.07-1.16c-0.58,0-1.14,0.26-1.65,0.58
		l-0.51-0.92c0.65-0.41,1.48-0.77,2.42-0.77c1.47,0,2.2,0.91,2.2,2.55v3.49H213l-0.11-0.65h-0.04c-0.53,0.45-1.13,0.8-1.83,0.8
		C210,379.13,209.29,378.43,209.29,377.41z M212.75,377.41v-1.32c-1.6,0.2-2.13,0.62-2.13,1.21c0,0.52,0.35,0.75,0.85,0.75
		C211.95,378.05,212.32,377.82,212.75,377.41z"/>
        <path class="st0" d="M215.81,377v-2.81h-0.84v-1.04l0.91-0.06l0.16-1.61h1.15v1.61h1.5v1.1h-1.5v2.8c0,0.69,0.27,1.03,0.83,1.03
		c0.2,0,0.44-0.07,0.61-0.13l0.24,1.02c-0.32,0.11-0.73,0.21-1.2,0.21C216.32,379.13,215.81,378.28,215.81,377z"/>
        <path class="st0" d="M219.78,371.29c0-0.47,0.36-0.78,0.85-0.78c0.49,0,0.85,0.32,0.85,0.78c0,0.46-0.36,0.78-0.85,0.78
		C220.15,372.07,219.78,371.74,219.78,371.29z M219.94,373.1h1.38v5.89h-1.38V373.1z"/>
        <path class="st0" d="M222.7,376.05c0-1.96,1.33-3.09,2.8-3.09c1.47,0,2.8,1.13,2.8,3.09c0,1.95-1.33,3.08-2.8,3.08
		C224.03,379.13,222.7,378,222.7,376.05z M226.88,376.05c0-1.18-0.52-1.97-1.38-1.97c-0.86,0-1.38,0.79-1.38,1.97
		c0,1.18,0.52,1.96,1.38,1.96C226.36,378.01,226.88,377.23,226.88,376.05z"/>
        <path class="st0" d="M229.67,373.1h1.13l0.11,0.8h0.04c0.53-0.51,1.13-0.94,1.93-0.94c1.26,0,1.81,0.85,1.81,2.34v3.69h-1.38v-3.52
		c0-0.97-0.28-1.33-0.92-1.33c-0.52,0-0.86,0.25-1.34,0.73v4.12h-1.38V373.1z"/>
        <path class="st0" d="M235.81,378.31l0.64-0.88c0.52,0.41,1.03,0.66,1.63,0.66c0.64,0,0.94-0.3,0.94-0.71
		c0-0.49-0.64-0.71-1.27-0.96c-0.77-0.29-1.65-0.73-1.65-1.72c0-1.02,0.83-1.76,2.14-1.76c0.82,0,1.48,0.33,1.96,0.71l-0.63,0.85
		c-0.41-0.3-0.83-0.51-1.29-0.51c-0.59,0-0.87,0.28-0.87,0.65c0,0.47,0.59,0.64,1.23,0.88c0.8,0.3,1.69,0.68,1.69,1.78
		c0,1.01-0.8,1.83-2.29,1.83C237.23,379.13,236.38,378.79,235.81,378.31z"/>
</g>
    <g>
	<path class="st0" d="M303.33,360.24v30h-136v-30H303.33 M304.33,359.24h-138v32h138V359.24L304.33,359.24z"/>
</g>
    <g>
	<path class="st0" d="M178.2,329.43h1.39v7.84h-1.39V329.43z"/>
        <path class="st0" d="M181.47,331.39h1.13l0.11,0.8h0.04c0.53-0.51,1.13-0.94,1.93-0.94c1.26,0,1.81,0.85,1.81,2.34v3.69h-1.38
		v-3.52c0-0.97-0.28-1.33-0.92-1.33c-0.52,0-0.86,0.25-1.34,0.73v4.12h-1.38V331.39z"/>
        <path class="st0" d="M187.45,331.39h1.4l0.94,3.06c0.16,0.58,0.34,1.18,0.5,1.78h0.05c0.16-0.59,0.34-1.2,0.5-1.78l0.94-3.06h1.33
		l-2,5.89h-1.6L187.45,331.39z"/>
        <path class="st0" d="M193.67,334.34c0-1.91,1.33-3.09,2.72-3.09c1.59,0,2.43,1.15,2.43,2.8c0,0.26-0.03,0.53-0.06,0.67h-3.74
		c0.12,1.05,0.79,1.64,1.74,1.64c0.5,0,0.94-0.16,1.37-0.43l0.47,0.86c-0.56,0.38-1.27,0.64-2.02,0.64
		C194.94,337.42,193.67,336.28,193.67,334.34z M197.62,333.77c0-0.91-0.4-1.46-1.21-1.46c-0.69,0-1.29,0.51-1.41,1.46H197.62z"/>
        <path class="st0" d="M200.14,331.39h1.13l0.11,0.8h0.04c0.53-0.51,1.13-0.94,1.93-0.94c1.26,0,1.81,0.85,1.81,2.34v3.69h-1.38
		v-3.52c0-0.97-0.28-1.33-0.92-1.33c-0.52,0-0.86,0.25-1.34,0.73v4.12h-1.38V331.39z"/>
        <path class="st0" d="M207.07,335.29v-2.81h-0.84v-1.04l0.91-0.06l0.16-1.61h1.15v1.61h1.5v1.1h-1.5v2.8c0,0.69,0.27,1.03,0.83,1.03
		c0.2,0,0.44-0.07,0.61-0.13l0.24,1.02c-0.32,0.11-0.73,0.21-1.2,0.21C207.57,337.42,207.07,336.56,207.07,335.29z"/>
        <path class="st0" d="M210.61,334.34c0-1.96,1.33-3.09,2.8-3.09s2.8,1.13,2.8,3.09c0,1.95-1.33,3.08-2.8,3.08
		S210.61,336.29,210.61,334.34z M214.8,334.34c0-1.18-0.52-1.97-1.38-1.97c-0.86,0-1.38,0.79-1.38,1.97c0,1.18,0.52,1.96,1.38,1.96
		C214.28,336.29,214.8,335.52,214.8,334.34z"/>
        <path class="st0" d="M217.59,331.39h1.13l0.11,1.05h0.04c0.42-0.77,1.04-1.19,1.67-1.19c0.3,0,0.49,0.04,0.67,0.12l-0.24,1.2
		c-0.21-0.06-0.36-0.1-0.6-0.1c-0.47,0-1.04,0.32-1.39,1.22v3.59h-1.38V331.39z"/>
        <path class="st0" d="M221.88,339.58l0.25-1.07c0.11,0.03,0.28,0.08,0.42,0.08c0.62,0,0.98-0.42,1.18-1.01l0.11-0.37l-2.32-5.82h1.4
		l1.02,2.89c0.18,0.52,0.35,1.1,0.52,1.66h0.05c0.15-0.55,0.3-1.13,0.45-1.66l0.88-2.89h1.33l-2.13,6.16
		c-0.49,1.33-1.11,2.15-2.39,2.15C222.32,339.7,222.09,339.65,221.88,339.58z"/>
</g>
    <g>
	<path class="st0" d="M303.33,318.53v30h-136v-30H303.33 M304.33,317.53h-138v32h138V317.53L304.33,317.53z"/>
</g>
    <g>
	<path class="st0" d="M362.13,196.36h4.72v1.17h-3.33v2.01h2.82v1.17h-2.82v2.32h3.45v1.17h-4.84V196.36z"/>
        <path class="st0" d="M367.61,198.31h1.4l0.94,3.06c0.16,0.58,0.34,1.18,0.5,1.78h0.05c0.16-0.59,0.34-1.2,0.5-1.78l0.94-3.06h1.33
		l-2,5.89h-1.6L367.61,198.31z"/>
        <path class="st0" d="M373.83,201.26c0-1.91,1.33-3.09,2.72-3.09c1.59,0,2.43,1.15,2.43,2.8c0,0.26-0.03,0.53-0.06,0.67h-3.74
		c0.12,1.05,0.79,1.64,1.74,1.64c0.5,0,0.94-0.16,1.37-0.43l0.47,0.86c-0.56,0.38-1.27,0.64-2.02,0.64
		C375.1,204.34,373.83,203.2,373.83,201.26z M377.78,200.69c0-0.91-0.4-1.46-1.21-1.46c-0.69,0-1.29,0.51-1.41,1.46H377.78z"/>
        <path class="st0" d="M380.3,198.31h1.13l0.11,0.8h0.04c0.53-0.51,1.13-0.94,1.93-0.94c1.26,0,1.81,0.85,1.81,2.34v3.69h-1.38v-3.52
		c0-0.97-0.28-1.33-0.92-1.33c-0.52,0-0.86,0.25-1.34,0.73v4.12h-1.38V198.31z"/>
        <path class="st0" d="M387.22,202.21v-2.81h-0.84v-1.04l0.91-0.06l0.16-1.61h1.15v1.61h1.5v1.1h-1.5v2.8c0,0.69,0.27,1.03,0.83,1.03
		c0.2,0,0.44-0.07,0.61-0.13l0.24,1.02c-0.32,0.11-0.73,0.22-1.2,0.22C387.73,204.34,387.22,203.48,387.22,202.21z"/>
        <path class="st0" d="M393.87,196.36h2.47c1.74,0,3.03,0.6,3.03,2.42c0,1.75-1.3,2.54-2.98,2.54h-1.13v2.88h-1.39V196.36z
		 M396.27,200.2c1.17,0,1.73-0.46,1.73-1.43c0-0.97-0.61-1.3-1.78-1.3h-0.96v2.73H396.27z"/>
        <path class="st0" d="M399.96,202.62c0-1.26,1.04-1.92,3.46-2.18c-0.02-0.63-0.27-1.16-1.07-1.16c-0.58,0-1.14,0.26-1.66,0.58
		l-0.51-0.92c0.65-0.41,1.48-0.77,2.42-0.77c1.47,0,2.2,0.91,2.2,2.55v3.49h-1.13l-0.11-0.65h-0.04c-0.53,0.45-1.13,0.8-1.83,0.8
		C400.67,204.34,399.96,203.64,399.96,202.62z M403.42,202.62v-1.32c-1.6,0.2-2.13,0.62-2.13,1.21c0,0.52,0.36,0.75,0.85,0.75
		C402.62,203.26,402.99,203.02,403.42,202.62z"/>
        <path class="st0" d="M406.07,205.27c0-0.5,0.31-0.93,0.85-1.26v-0.05c-0.3-0.2-0.53-0.51-0.53-0.98c0-0.46,0.31-0.86,0.65-1.1
		v-0.05c-0.4-0.3-0.78-0.86-0.78-1.55c0-1.35,1.09-2.12,2.33-2.12c0.33,0,0.63,0.06,0.87,0.14h2.11v1.03h-1.07
		c0.19,0.22,0.34,0.58,0.34,0.99c0,1.31-0.99,2.01-2.24,2.01c-0.25,0-0.53-0.05-0.8-0.16c-0.18,0.15-0.29,0.3-0.29,0.56
		c0,0.33,0.24,0.53,0.96,0.53h1.05c1.41,0,2.16,0.44,2.16,1.45c0,1.16-1.22,2.08-3.14,2.08
		C407.11,206.81,406.07,206.3,406.07,205.27z M410.33,204.95c0-0.46-0.36-0.59-1.04-0.59h-0.81c-0.32,0-0.57-0.02-0.8-0.08
		c-0.32,0.24-0.46,0.5-0.46,0.78c0,0.54,0.58,0.85,1.5,0.85C409.68,205.91,410.33,205.46,410.33,204.95z M409.61,200.28
		c0-0.74-0.45-1.16-1.02-1.16c-0.58,0-1.02,0.42-1.02,1.16c0,0.75,0.46,1.18,1.02,1.18C409.15,201.47,409.61,201.03,409.61,200.28z"
        />
        <path class="st0" d="M412.13,201.26c0-1.91,1.33-3.09,2.72-3.09c1.59,0,2.43,1.15,2.43,2.8c0,0.26-0.03,0.53-0.06,0.67h-3.74
		c0.12,1.05,0.79,1.64,1.74,1.64c0.5,0,0.94-0.16,1.37-0.43l0.47,0.86c-0.56,0.38-1.27,0.64-2.02,0.64
		C413.41,204.34,412.13,203.2,412.13,201.26z M416.08,200.69c0-0.91-0.4-1.46-1.21-1.46c-0.69,0-1.29,0.51-1.41,1.46H416.08z"/>
</g>
    <g>
	<path class="st0" d="M487.25,185.45v30h-136v-30H487.25 M488.25,184.45h-138v32h138V184.45L488.25,184.45z"/>
</g>
    <g>
	<path class="st0" d="M363.66,271.72h1.63l2.56,7.84h-1.47l-1.2-4.17c-0.25-0.83-0.48-1.72-0.71-2.58h-0.05
		c-0.22,0.87-0.45,1.76-0.7,2.58l-1.2,4.17h-1.42L363.66,271.72z M362.62,276.35h3.69v1.09h-3.69V276.35z"/>
        <path class="st0" d="M368.32,276.62c0-1.96,1.39-3.09,2.96-3.09c0.75,0,1.29,0.29,1.72,0.66l-0.67,0.9
		c-0.31-0.27-0.61-0.43-0.98-0.43c-0.95,0-1.61,0.79-1.61,1.97c0,1.18,0.65,1.96,1.56,1.96c0.46,0,0.88-0.23,1.22-0.51l0.56,0.91
		c-0.55,0.49-1.25,0.72-1.92,0.72C369.55,279.71,368.32,278.58,368.32,276.62z"/>
        <path class="st0" d="M373.57,276.62c0-1.96,1.39-3.09,2.96-3.09c0.75,0,1.3,0.29,1.72,0.66l-0.67,0.9
		c-0.31-0.27-0.61-0.43-0.98-0.43c-0.95,0-1.61,0.79-1.61,1.97c0,1.18,0.65,1.96,1.56,1.96c0.46,0,0.88-0.23,1.22-0.51l0.56,0.91
		c-0.55,0.49-1.25,0.72-1.92,0.72C374.81,279.71,373.57,278.58,373.57,276.62z"/>
        <path class="st0" d="M378.83,276.62c0-1.96,1.33-3.09,2.8-3.09s2.8,1.13,2.8,3.09c0,1.95-1.33,3.08-2.8,3.08
		S378.83,278.58,378.83,276.62z M383.01,276.62c0-1.18-0.52-1.97-1.38-1.97s-1.38,0.79-1.38,1.97c0,1.18,0.52,1.96,1.38,1.96
		S383.01,277.8,383.01,276.62z"/>
        <path class="st0" d="M385.81,273.67h1.13l0.11,0.8h0.04c0.5-0.52,1.07-0.95,1.81-0.95c0.86,0,1.36,0.39,1.63,1.06
		c0.56-0.6,1.15-1.06,1.9-1.06c1.24,0,1.82,0.85,1.82,2.34v3.69h-1.38v-3.52c0-0.97-0.29-1.33-0.91-1.33
		c-0.37,0-0.78,0.24-1.23,0.73v4.12h-1.38v-3.52c0-0.97-0.29-1.33-0.91-1.33c-0.37,0-0.78,0.24-1.23,0.73v4.12h-1.38V273.67z"/>
        <path class="st0" d="M395.92,273.67h1.13l0.11,0.8h0.04c0.5-0.52,1.07-0.95,1.81-0.95c0.86,0,1.36,0.39,1.63,1.06
		c0.56-0.6,1.15-1.06,1.89-1.06c1.24,0,1.82,0.85,1.82,2.34v3.69h-1.38v-3.52c0-0.97-0.29-1.33-0.91-1.33
		c-0.37,0-0.78,0.24-1.23,0.73v4.12h-1.38v-3.52c0-0.97-0.29-1.33-0.91-1.33c-0.36,0-0.78,0.24-1.23,0.73v4.12h-1.38V273.67z"/>
        <path class="st0" d="M405.68,276.62c0-1.92,1.2-3.09,2.49-3.09c0.67,0,1.09,0.25,1.54,0.65l-0.05-0.95v-2.13h1.38v8.47h-1.13
		l-0.11-0.64h-0.04c-0.44,0.44-1.04,0.78-1.67,0.78C406.63,279.71,405.68,278.57,405.68,276.62z M409.66,277.91v-2.74
		c-0.4-0.36-0.8-0.49-1.2-0.49c-0.75,0-1.37,0.71-1.37,1.94c0,1.28,0.49,1.96,1.34,1.96C408.89,278.57,409.28,278.37,409.66,277.91z
		"/>
        <path class="st0" d="M412.49,277.98c0-1.26,1.04-1.92,3.46-2.18c-0.02-0.63-0.27-1.16-1.07-1.16c-0.58,0-1.14,0.26-1.66,0.58
		l-0.51-0.92c0.65-0.41,1.48-0.77,2.42-0.77c1.47,0,2.2,0.91,2.2,2.55v3.49h-1.13l-0.11-0.65h-0.04c-0.53,0.45-1.13,0.8-1.83,0.8
		C413.2,279.71,412.49,279.01,412.49,277.98z M415.95,277.99v-1.32c-1.6,0.2-2.13,0.62-2.13,1.21c0,0.52,0.36,0.75,0.85,0.75
		C415.15,278.62,415.52,278.39,415.95,277.99z"/>
        <path class="st0" d="M419.01,277.58v-2.81h-0.84v-1.04l0.91-0.06l0.16-1.61h1.15v1.61h1.5v1.1h-1.5v2.8c0,0.69,0.27,1.03,0.83,1.03
		c0.2,0,0.44-0.07,0.61-0.13l0.24,1.02c-0.32,0.11-0.73,0.22-1.2,0.22C419.52,279.71,419.01,278.85,419.01,277.58z"/>
        <path class="st0" d="M422.98,271.86c0-0.47,0.36-0.78,0.85-0.78s0.85,0.32,0.85,0.78c0,0.46-0.36,0.78-0.85,0.78
		S422.98,272.32,422.98,271.86z M423.14,273.67h1.38v5.89h-1.38V273.67z"/>
        <path class="st0" d="M425.89,276.62c0-1.96,1.33-3.09,2.8-3.09s2.8,1.13,2.8,3.09c0,1.95-1.33,3.08-2.8,3.08
		S425.89,278.58,425.89,276.62z M430.08,276.62c0-1.18-0.52-1.97-1.38-1.97s-1.38,0.79-1.38,1.97c0,1.18,0.52,1.96,1.38,1.96
		S430.08,277.8,430.08,276.62z"/>
        <path class="st0" d="M432.87,273.67H434l0.11,0.8h0.04c0.53-0.51,1.13-0.94,1.93-0.94c1.26,0,1.81,0.85,1.81,2.34v3.69h-1.38v-3.52
		c0-0.97-0.28-1.33-0.92-1.33c-0.52,0-0.86,0.25-1.34,0.73v4.12h-1.38V273.67z"/>
        <path class="st0" d="M442.11,271.72h2.47c1.74,0,3.03,0.6,3.03,2.42c0,1.75-1.29,2.54-2.98,2.54h-1.13v2.88h-1.39V271.72z
		 M444.51,275.57c1.17,0,1.73-0.46,1.73-1.43c0-0.97-0.61-1.3-1.77-1.3h-0.96v2.73H444.51z"/>
        <path class="st0" d="M448.2,277.98c0-1.26,1.05-1.92,3.46-2.18c-0.02-0.63-0.27-1.16-1.07-1.16c-0.58,0-1.14,0.26-1.65,0.58
		l-0.51-0.92c0.65-0.41,1.48-0.77,2.42-0.77c1.47,0,2.2,0.91,2.2,2.55v3.49h-1.13l-0.11-0.65h-0.04c-0.53,0.45-1.13,0.8-1.83,0.8
		C448.91,279.71,448.2,279.01,448.2,277.98z M451.66,277.99v-1.32c-1.6,0.2-2.13,0.62-2.13,1.21c0,0.52,0.35,0.75,0.85,0.75
		C450.86,278.62,451.23,278.39,451.66,277.99z"/>
        <path class="st0" d="M454.31,280.64c0-0.5,0.31-0.93,0.85-1.26v-0.05c-0.3-0.2-0.53-0.51-0.53-0.98c0-0.46,0.31-0.86,0.65-1.1
		v-0.05c-0.4-0.3-0.78-0.86-0.78-1.55c0-1.35,1.09-2.12,2.33-2.12c0.33,0,0.63,0.06,0.87,0.14h2.11v1.03h-1.08
		c0.19,0.22,0.34,0.58,0.34,0.99c0,1.31-0.99,2.01-2.24,2.01c-0.25,0-0.53-0.05-0.8-0.16c-0.18,0.15-0.29,0.3-0.29,0.56
		c0,0.33,0.24,0.53,0.96,0.53h1.05c1.41,0,2.16,0.44,2.16,1.45c0,1.16-1.22,2.08-3.14,2.08
		C455.35,282.17,454.31,281.67,454.31,280.64z M458.57,280.32c0-0.46-0.36-0.59-1.04-0.59h-0.81c-0.32,0-0.57-0.02-0.8-0.08
		c-0.32,0.24-0.46,0.5-0.46,0.78c0,0.54,0.58,0.85,1.5,0.85C457.92,281.27,458.57,280.83,458.57,280.32z M457.85,275.65
		c0-0.74-0.45-1.16-1.02-1.16c-0.58,0-1.02,0.42-1.02,1.16c0,0.75,0.46,1.18,1.02,1.18S457.85,276.39,457.85,275.65z"/>
        <path class="st0" d="M460.37,276.62c0-1.91,1.33-3.09,2.71-3.09c1.59,0,2.43,1.15,2.43,2.8c0,0.26-0.03,0.53-0.06,0.67h-3.74
		c0.12,1.05,0.79,1.64,1.74,1.64c0.5,0,0.93-0.16,1.37-0.43l0.47,0.86c-0.56,0.38-1.27,0.64-2.02,0.64
		C461.64,279.71,460.37,278.57,460.37,276.62z M464.32,276.06c0-0.91-0.4-1.46-1.21-1.46c-0.69,0-1.29,0.51-1.41,1.46H464.32z"/>
</g>
    <g>
	<path class="st0" d="M487.25,260.82v30h-136v-30H487.25 M488.25,259.82h-138v32h138V259.82L488.25,259.82z"/>
</g>
    <g>
	<path class="st0" d="M362.07,329.72h2.47c1.74,0,3.03,0.6,3.03,2.42c0,1.75-1.29,2.54-2.98,2.54h-1.13v2.88h-1.39V329.72z
		 M364.47,333.57c1.17,0,1.73-0.46,1.73-1.43c0-0.97-0.61-1.3-1.77-1.3h-0.96v2.73H364.47z"/>
        <path class="st0" d="M368.16,335.98c0-1.26,1.05-1.92,3.46-2.18c-0.02-0.63-0.27-1.16-1.07-1.16c-0.58,0-1.14,0.26-1.65,0.58
		l-0.51-0.92c0.65-0.41,1.48-0.77,2.42-0.77c1.47,0,2.2,0.91,2.2,2.55v3.49h-1.13l-0.11-0.65h-0.04c-0.53,0.45-1.13,0.8-1.83,0.8
		C368.87,337.71,368.16,337.01,368.16,335.98z M371.62,335.99v-1.32c-1.6,0.2-2.13,0.62-2.13,1.21c0,0.52,0.35,0.75,0.85,0.75
		C370.82,336.62,371.19,336.39,371.62,335.99z"/>
        <path class="st0" d="M374.28,334.62c0-1.96,1.39-3.09,2.96-3.09c0.75,0,1.29,0.29,1.72,0.66l-0.67,0.9
		c-0.31-0.27-0.61-0.43-0.98-0.43c-0.95,0-1.61,0.79-1.61,1.97c0,1.18,0.65,1.96,1.56,1.96c0.46,0,0.88-0.23,1.22-0.51l0.56,0.91
		c-0.55,0.49-1.25,0.72-1.92,0.72C375.51,337.71,374.28,336.58,374.28,334.62z"/>
        <path class="st0" d="M380.21,329.09h1.35v5.29h0.04l2.18-2.71h1.51l-2.02,2.4l2.23,3.49H384l-1.52-2.56l-0.92,1.06v1.5h-1.35
		V329.09z"/>
        <path class="st0" d="M386.04,335.98c0-1.26,1.05-1.92,3.46-2.18c-0.02-0.63-0.27-1.16-1.07-1.16c-0.58,0-1.14,0.26-1.65,0.58
		l-0.51-0.92c0.65-0.41,1.48-0.77,2.42-0.77c1.47,0,2.2,0.91,2.2,2.55v3.49h-1.13l-0.11-0.65h-0.04c-0.53,0.45-1.13,0.8-1.83,0.8
		C386.75,337.71,386.04,337.01,386.04,335.98z M389.5,335.99v-1.32c-1.6,0.2-2.13,0.62-2.13,1.21c0,0.52,0.35,0.75,0.85,0.75
		C388.7,336.62,389.07,336.39,389.5,335.99z"/>
        <path class="st0" d="M392.15,338.64c0-0.5,0.31-0.93,0.85-1.26v-0.05c-0.3-0.2-0.53-0.51-0.53-0.98c0-0.46,0.31-0.86,0.65-1.1
		v-0.05c-0.4-0.3-0.78-0.86-0.78-1.55c0-1.35,1.09-2.12,2.33-2.12c0.33,0,0.63,0.06,0.87,0.14h2.11v1.03h-1.08
		c0.19,0.22,0.34,0.58,0.34,0.99c0,1.31-0.99,2.01-2.24,2.01c-0.25,0-0.53-0.05-0.8-0.16c-0.18,0.15-0.29,0.3-0.29,0.56
		c0,0.33,0.24,0.53,0.96,0.53h1.05c1.41,0,2.16,0.44,2.16,1.45c0,1.16-1.22,2.08-3.14,2.08
		C393.19,340.17,392.15,339.67,392.15,338.64z M396.41,338.32c0-0.46-0.36-0.59-1.04-0.59h-0.81c-0.32,0-0.57-0.02-0.8-0.08
		c-0.32,0.24-0.46,0.5-0.46,0.78c0,0.54,0.58,0.85,1.5,0.85C395.76,339.27,396.41,338.83,396.41,338.32z M395.69,333.65
		c0-0.74-0.45-1.16-1.02-1.16c-0.58,0-1.02,0.42-1.02,1.16c0,0.75,0.46,1.18,1.02,1.18S395.69,334.39,395.69,333.65z"/>
        <path class="st0" d="M398.21,334.62c0-1.91,1.33-3.09,2.71-3.09c1.59,0,2.43,1.15,2.43,2.8c0,0.26-0.03,0.53-0.06,0.67h-3.74
		c0.12,1.05,0.79,1.64,1.74,1.64c0.5,0,0.94-0.16,1.37-0.43l0.47,0.86c-0.56,0.38-1.27,0.64-2.02,0.64
		C399.48,337.71,398.21,336.57,398.21,334.62z M402.16,334.06c0-0.91-0.4-1.46-1.21-1.46c-0.69,0-1.29,0.51-1.41,1.46H402.16z"/>
        <path class="st0" d="M407.2,329.72h2.47c1.74,0,3.03,0.6,3.03,2.42c0,1.75-1.3,2.54-2.98,2.54h-1.13v2.88h-1.39V329.72z
		 M409.6,333.57c1.17,0,1.73-0.46,1.73-1.43c0-0.97-0.61-1.3-1.78-1.3h-0.96v2.73H409.6z"/>
        <path class="st0" d="M413.29,335.98c0-1.26,1.04-1.92,3.46-2.18c-0.02-0.63-0.27-1.16-1.07-1.16c-0.58,0-1.14,0.26-1.66,0.58
		l-0.51-0.92c0.65-0.41,1.48-0.77,2.42-0.77c1.47,0,2.2,0.91,2.2,2.55v3.49H417l-0.11-0.65h-0.04c-0.53,0.45-1.13,0.8-1.83,0.8
		C414,337.71,413.29,337.01,413.29,335.98z M416.75,335.99v-1.32c-1.6,0.2-2.13,0.62-2.13,1.21c0,0.52,0.36,0.75,0.85,0.75
		C415.95,336.62,416.32,336.39,416.75,335.99z"/>
        <path class="st0" d="M419.4,338.64c0-0.5,0.31-0.93,0.85-1.26v-0.05c-0.3-0.2-0.53-0.51-0.53-0.98c0-0.46,0.31-0.86,0.65-1.1v-0.05
		c-0.4-0.3-0.78-0.86-0.78-1.55c0-1.35,1.09-2.12,2.33-2.12c0.33,0,0.63,0.06,0.87,0.14h2.11v1.03h-1.07
		c0.19,0.22,0.34,0.58,0.34,0.99c0,1.31-0.99,2.01-2.24,2.01c-0.25,0-0.53-0.05-0.8-0.16c-0.18,0.15-0.29,0.3-0.29,0.56
		c0,0.33,0.24,0.53,0.96,0.53h1.05c1.41,0,2.16,0.44,2.16,1.45c0,1.16-1.22,2.08-3.14,2.08C420.44,340.17,419.4,339.67,419.4,338.64
		z M423.66,338.32c0-0.46-0.36-0.59-1.04-0.59h-0.81c-0.32,0-0.57-0.02-0.8-0.08c-0.32,0.24-0.46,0.5-0.46,0.78
		c0,0.54,0.58,0.85,1.5,0.85C423.01,339.27,423.66,338.83,423.66,338.32z M422.94,333.65c0-0.74-0.45-1.16-1.02-1.16
		c-0.58,0-1.02,0.42-1.02,1.16c0,0.75,0.46,1.18,1.02,1.18C422.48,334.83,422.94,334.39,422.94,333.65z"/>
        <path class="st0" d="M425.46,334.62c0-1.91,1.33-3.09,2.72-3.09c1.59,0,2.43,1.15,2.43,2.8c0,0.26-0.03,0.53-0.06,0.67h-3.74
		c0.12,1.05,0.79,1.64,1.74,1.64c0.5,0,0.94-0.16,1.37-0.43l0.47,0.86c-0.56,0.38-1.27,0.64-2.02,0.64
		C426.74,337.71,425.46,336.57,425.46,334.62z M429.41,334.06c0-0.91-0.4-1.46-1.21-1.46c-0.69,0-1.29,0.51-1.41,1.46H429.41z"/>
</g>
    <g>
	<path class="st0" d="M487.19,318.82v30h-136v-30H487.19 M488.19,317.82h-138v32h138V317.82L488.19,317.82z"/>
</g>
    <g>
	<path class="st0" d="M360.6,118.27c0-2.57,1.61-4.09,3.59-4.09c0.98,0,1.76,0.47,2.26,0.99l-0.74,0.9c-0.4-0.4-0.87-0.68-1.49-0.68
		c-1.28,0-2.19,1.08-2.19,2.84c0,1.79,0.84,2.87,2.16,2.87c0.7,0,1.23-0.32,1.67-0.81l0.74,0.87c-0.64,0.74-1.45,1.14-2.47,1.14
		C362.16,122.31,360.6,120.87,360.6,118.27z"/>
        <path class="st0" d="M367.8,113.7h1.38v2.19l-0.06,1.14c0.49-0.47,1.08-0.89,1.88-0.89c1.26,0,1.81,0.85,1.81,2.34v3.69h-1.38
		v-3.52c0-0.97-0.28-1.33-0.92-1.33c-0.52,0-0.86,0.25-1.34,0.73v4.12h-1.38V113.7z"/>
        <path class="st0" d="M374.11,119.23c0-1.91,1.33-3.09,2.72-3.09c1.59,0,2.43,1.15,2.43,2.8c0,0.26-0.03,0.53-0.06,0.67h-3.74
		c0.12,1.05,0.79,1.64,1.74,1.64c0.5,0,0.94-0.16,1.37-0.43l0.47,0.86c-0.56,0.38-1.27,0.64-2.02,0.64
		C375.38,122.31,374.11,121.17,374.11,119.23z M378.06,118.66c0-0.91-0.4-1.46-1.21-1.46c-0.69,0-1.29,0.51-1.41,1.46H378.06z"/>
        <path class="st0" d="M380.19,119.23c0-1.96,1.39-3.09,2.96-3.09c0.75,0,1.3,0.29,1.72,0.66l-0.67,0.9
		c-0.31-0.27-0.61-0.43-0.98-0.43c-0.95,0-1.61,0.79-1.61,1.97s0.65,1.96,1.56,1.96c0.46,0,0.88-0.23,1.22-0.51l0.56,0.91
		c-0.55,0.49-1.25,0.72-1.92,0.72C381.42,122.31,380.19,121.18,380.19,119.23z"/>
        <path class="st0" d="M386.12,113.7h1.35v5.29h0.04l2.18-2.71h1.51l-2.02,2.4l2.23,3.49h-1.5l-1.52-2.56l-0.92,1.06v1.5h-1.35V113.7
		z"/>
        <path class="st0" d="M391.72,119.23c0-1.96,1.33-3.09,2.8-3.09s2.8,1.13,2.8,3.09c0,1.95-1.33,3.08-2.8,3.08
		S391.72,121.18,391.72,119.23z M395.91,119.23c0-1.18-0.52-1.97-1.38-1.97c-0.86,0-1.38,0.79-1.38,1.97s0.52,1.96,1.38,1.96
		C395.39,121.19,395.91,120.41,395.91,119.23z"/>
        <path class="st0" d="M398.63,119.97v-3.69h1.38v3.52c0,0.97,0.28,1.33,0.92,1.33c0.52,0,0.86-0.24,1.3-0.82v-4.03h1.38v5.89h-1.13
		l-0.11-0.87h-0.04c-0.52,0.61-1.09,1.01-1.89,1.01C399.18,122.31,398.63,121.46,398.63,119.97z"/>
        <path class="st0" d="M405.58,120.18v-2.81h-0.84v-1.04l0.91-0.06l0.16-1.61h1.15v1.61h1.5v1.1h-1.5v2.8c0,0.69,0.27,1.03,0.83,1.03
		c0.2,0,0.44-0.07,0.61-0.13l0.24,1.02c-0.32,0.11-0.73,0.22-1.2,0.22C406.08,122.31,405.58,121.46,405.58,120.18z"/>
</g>
    <g>
	<path class="st0" d="M486.13,103.42v30h-136v-30H486.13 M487.13,102.42h-138v32h138V102.42L487.13,102.42z"/>
</g>
    <g>
	<path class="st0" d="M363.66,52.69h1.63l2.56,7.84h-1.47l-1.2-4.17c-0.25-0.83-0.48-1.72-0.71-2.59h-0.05
		c-0.22,0.87-0.45,1.76-0.7,2.59l-1.2,4.17h-1.42L363.66,52.69z M362.62,57.32h3.69v1.09h-3.69V57.32z"/>
        <path class="st0" d="M368.32,57.59c0-1.96,1.39-3.09,2.96-3.09c0.75,0,1.29,0.29,1.72,0.66l-0.67,0.9
		c-0.31-0.27-0.61-0.43-0.98-0.43c-0.95,0-1.61,0.79-1.61,1.97s0.65,1.96,1.56,1.96c0.46,0,0.88-0.23,1.22-0.51l0.56,0.91
		c-0.55,0.49-1.25,0.72-1.92,0.72C369.55,60.68,368.32,59.55,368.32,57.59z"/>
        <path class="st0" d="M373.57,57.59c0-1.96,1.39-3.09,2.96-3.09c0.75,0,1.3,0.29,1.72,0.66l-0.67,0.9
		c-0.31-0.27-0.61-0.43-0.98-0.43c-0.95,0-1.61,0.79-1.61,1.97s0.65,1.96,1.56,1.96c0.46,0,0.88-0.23,1.22-0.51l0.56,0.91
		c-0.55,0.49-1.25,0.72-1.92,0.72C374.81,60.68,373.57,59.55,373.57,57.59z"/>
        <path class="st0" d="M378.83,57.59c0-1.96,1.33-3.09,2.8-3.09s2.8,1.13,2.8,3.09c0,1.95-1.33,3.08-2.8,3.08
		S378.83,59.55,378.83,57.59z M383.01,57.59c0-1.18-0.52-1.97-1.38-1.97s-1.38,0.79-1.38,1.97s0.52,1.96,1.38,1.96
		S383.01,58.77,383.01,57.59z"/>
        <path class="st0" d="M385.74,58.34v-3.69h1.38v3.52c0,0.97,0.28,1.33,0.92,1.33c0.52,0,0.86-0.24,1.3-0.82v-4.03h1.38v5.89h-1.13
		l-0.11-0.87h-0.04c-0.52,0.61-1.09,1.01-1.9,1.01C386.29,60.68,385.74,59.82,385.74,58.34z"/>
        <path class="st0" d="M392.48,54.64h1.13l0.11,0.8h0.04c0.53-0.51,1.13-0.94,1.93-0.94c1.26,0,1.81,0.85,1.81,2.34v3.69h-1.38v-3.52
		c0-0.97-0.28-1.33-0.92-1.33c-0.52,0-0.86,0.25-1.34,0.73v4.12h-1.38V54.64z"/>
        <path class="st0" d="M399.4,58.55v-2.81h-0.84v-1.04l0.91-0.06l0.16-1.61h1.15v1.61h1.5v1.1h-1.5v2.8c0,0.69,0.27,1.03,0.83,1.03
		c0.2,0,0.44-0.07,0.61-0.13l0.24,1.02c-0.32,0.11-0.73,0.22-1.2,0.22C399.91,60.68,399.4,59.82,399.4,58.55z"/>
        <path class="st0" d="M406.05,52.69h2.47c1.74,0,3.03,0.6,3.03,2.42c0,1.75-1.3,2.54-2.98,2.54h-1.13v2.88h-1.39V52.69z
		 M408.45,56.54c1.17,0,1.73-0.47,1.73-1.43c0-0.97-0.61-1.3-1.78-1.3h-0.96v2.73H408.45z"/>
        <path class="st0" d="M412.14,58.95c0-1.26,1.04-1.92,3.46-2.18c-0.02-0.63-0.27-1.16-1.07-1.16c-0.58,0-1.14,0.26-1.66,0.58
		l-0.51-0.92c0.65-0.41,1.48-0.77,2.42-0.77c1.47,0,2.2,0.91,2.2,2.55v3.49h-1.13l-0.11-0.65h-0.04c-0.53,0.45-1.13,0.8-1.83,0.8
		C412.85,60.68,412.14,59.98,412.14,58.95z M415.6,58.96v-1.32c-1.6,0.2-2.13,0.62-2.13,1.21c0,0.52,0.36,0.75,0.85,0.75
		C414.8,59.59,415.17,59.36,415.6,58.96z"/>
        <path class="st0" d="M418.25,61.6c0-0.5,0.31-0.93,0.85-1.26V60.3c-0.3-0.2-0.53-0.51-0.53-0.98c0-0.46,0.31-0.86,0.65-1.1v-0.05
		c-0.4-0.3-0.78-0.86-0.78-1.55c0-1.35,1.09-2.12,2.33-2.12c0.33,0,0.63,0.06,0.87,0.14h2.11v1.03h-1.07
		c0.19,0.22,0.34,0.59,0.34,0.99c0,1.31-0.99,2.01-2.24,2.01c-0.25,0-0.53-0.05-0.8-0.16c-0.18,0.15-0.29,0.3-0.29,0.56
		c0,0.33,0.24,0.53,0.96,0.53h1.05c1.41,0,2.16,0.44,2.16,1.45c0,1.16-1.22,2.08-3.14,2.08C419.29,63.14,418.25,62.64,418.25,61.6z
		 M422.51,61.29c0-0.46-0.36-0.59-1.04-0.59h-0.81c-0.32,0-0.57-0.02-0.8-0.08c-0.32,0.24-0.46,0.5-0.46,0.78
		c0,0.54,0.58,0.85,1.5,0.85C421.86,62.24,422.51,61.8,422.51,61.29z M421.79,56.62c0-0.74-0.45-1.16-1.02-1.16
		c-0.58,0-1.02,0.42-1.02,1.16c0,0.75,0.46,1.19,1.02,1.19C421.33,57.8,421.79,57.36,421.79,56.62z"/>
        <path class="st0" d="M424.31,57.59c0-1.91,1.33-3.09,2.72-3.09c1.59,0,2.43,1.15,2.43,2.8c0,0.26-0.03,0.53-0.06,0.67h-3.74
		c0.12,1.05,0.79,1.64,1.74,1.64c0.5,0,0.94-0.16,1.37-0.43l0.47,0.86c-0.56,0.38-1.27,0.64-2.02,0.64
		C425.58,60.68,424.31,59.54,424.31,57.59z M428.26,57.03c0-0.91-0.4-1.46-1.21-1.46c-0.69,0-1.29,0.51-1.41,1.46H428.26z"/>
</g>
    <g>
	<path class="st0" d="M487.25,41.79v30h-136v-30H487.25 M488.25,40.79h-138v32h138V40.79L488.25,40.79z"/>
</g>
    <g>
	<path class="st1" d="M502.17,23.83V405H335.36V23.83H502.17 M503.17,22.83H334.36V406h168.81V22.83L503.17,22.83z"/>
</g>
    <g>
	<path class="st2" d="M319.74,23.83V405H151.47V23.83H319.74 M320.74,22.83H150.47V406h170.27V22.83L320.74,22.83z"/>
</g>
    <g>
	<path class="st2" d="M151.8,0.86h6.3v1.56h-4.44V5.1h3.76v1.56h-3.76v3.1h4.6v1.56h-6.46V0.86z"/>
        <path class="st2" d="M159.61,7.4c0-2.56,1.61-4.13,3.33-4.13c0.89,0,1.45,0.33,2.06,0.86l-0.07-1.27V0.02h1.84v11.31h-1.51
		l-0.14-0.85h-0.05c-0.58,0.58-1.39,1.04-2.23,1.04C160.88,11.52,159.61,9.99,159.61,7.4z M164.93,9.11V5.45
		c-0.54-0.48-1.07-0.65-1.6-0.65c-1,0-1.83,0.95-1.83,2.59c0,1.71,0.65,2.61,1.79,2.61C163.9,9.99,164.41,9.73,164.93,9.11z"/>
        <path class="st2" d="M168.9,1.04c0-0.62,0.49-1.04,1.14-1.04c0.65,0,1.14,0.42,1.14,1.04c0,0.61-0.49,1.04-1.14,1.04
		C169.39,2.09,168.9,1.65,168.9,1.04z M169.11,3.46h1.84v7.86h-1.84V3.46z"/>
        <path class="st2" d="M173.58,8.68V4.93h-1.12V3.55l1.22-0.08l0.22-2.15h1.53v2.15h2v1.47h-2v3.74c0,0.93,0.36,1.38,1.11,1.38
		c0.27,0,0.59-0.09,0.82-0.18l0.31,1.36c-0.43,0.14-0.98,0.29-1.61,0.29C174.25,11.52,173.58,10.37,173.58,8.68z"/>
        <path class="st2" d="M178.31,7.4c0-2.62,1.78-4.13,3.74-4.13c1.96,0,3.74,1.51,3.74,4.13c0,2.61-1.78,4.12-3.74,4.12
		C180.09,11.52,178.31,10.01,178.31,7.4z M183.89,7.4c0-1.58-0.69-2.63-1.84-2.63s-1.84,1.05-1.84,2.63s0.69,2.61,1.84,2.61
		S183.89,8.98,183.89,7.4z"/>
        <path class="st2" d="M187.61,3.46h1.51l0.14,1.4h0.05c0.56-1.02,1.39-1.59,2.23-1.59c0.4,0,0.65,0.05,0.89,0.16l-0.32,1.6
		c-0.28-0.08-0.48-0.13-0.81-0.13c-0.63,0-1.38,0.43-1.86,1.63v4.8h-1.84V3.46z"/>
        <path class="st2" d="M192.7,10.42l0.86-1.17c0.7,0.54,1.37,0.88,2.17,0.88c0.86,0,1.26-0.4,1.26-0.94c0-0.66-0.85-0.95-1.69-1.27
		c-1.03-0.39-2.21-0.98-2.21-2.29c0-1.36,1.1-2.35,2.86-2.35c1.09,0,1.97,0.45,2.61,0.94l-0.85,1.13c-0.55-0.4-1.1-0.69-1.72-0.69
		c-0.79,0-1.17,0.38-1.17,0.87c0,0.62,0.79,0.86,1.65,1.17c1.06,0.4,2.25,0.91,2.25,2.38c0,1.35-1.07,2.44-3.05,2.44
		C194.6,11.52,193.47,11.06,192.7,10.42z"/>
</g>
    <g>
	<path class="st1" d="M335.69,0.86h1.91l3.25,5.88l1.08,2.23H342c-0.09-1.08-0.24-2.41-0.24-3.57V0.86h1.77v10.47h-1.91l-3.25-5.89
		l-1.08-2.23h-0.06c0.09,1.11,0.24,2.37,0.24,3.53v4.58h-1.77V0.86z"/>
        <path class="st1" d="M345.51,7.4c0-2.55,1.77-4.13,3.62-4.13c2.13,0,3.25,1.54,3.25,3.73c0,0.35-0.04,0.7-0.08,0.9h-4.99
		c0.15,1.4,1.05,2.19,2.32,2.19c0.67,0,1.25-0.21,1.83-0.57l0.63,1.15c-0.75,0.51-1.7,0.85-2.7,0.85
		C347.21,11.52,345.51,9.99,345.51,7.4z M350.79,6.65c0-1.21-0.54-1.95-1.61-1.95c-0.92,0-1.72,0.69-1.88,1.95H350.79z"/>
        <path class="st1" d="M353.35,3.46h1.85l0.95,4.08c0.15,0.76,0.27,1.5,0.41,2.27h0.06c0.15-0.77,0.31-1.52,0.5-2.27l1.03-4.08h1.67
		l1.05,4.08c0.19,0.76,0.35,1.5,0.52,2.27h0.06c0.15-0.77,0.27-1.5,0.42-2.27l0.94-4.08h1.72l-1.99,7.86h-2.19l-0.92-3.67
		c-0.17-0.74-0.31-1.46-0.47-2.28h-0.06c-0.15,0.82-0.29,1.56-0.47,2.3l-0.89,3.66h-2.13L353.35,3.46z"/>
        <path class="st1" d="M369.47,0.86h3.3c2.32,0,4.05,0.81,4.05,3.23c0,2.33-1.73,3.39-3.98,3.39h-1.5v3.85h-1.86V0.86z M372.68,5.99
		c1.56,0,2.3-0.62,2.3-1.91c0-1.3-0.81-1.74-2.37-1.74h-1.29v3.65H372.68z"/>
        <path class="st1" d="M377.59,9.21c0-1.68,1.4-2.56,4.62-2.91c-0.03-0.85-0.37-1.55-1.43-1.55c-0.78,0-1.52,0.35-2.21,0.77
		L377.9,4.3c0.86-0.54,1.98-1.03,3.23-1.03c1.97,0,2.93,1.21,2.93,3.4v4.65h-1.51l-0.14-0.87h-0.05c-0.7,0.6-1.51,1.06-2.44,1.06
		C378.54,11.52,377.59,10.58,377.59,9.21z M382.21,9.22V7.45c-2.13,0.27-2.84,0.83-2.84,1.62c0,0.69,0.47,1,1.13,1
		C381.14,10.07,381.63,9.76,382.21,9.22z"/>
        <path class="st1" d="M385.73,12.75c0-0.66,0.41-1.24,1.13-1.68v-0.06c-0.4-0.26-0.71-0.68-0.71-1.31c0-0.61,0.42-1.15,0.87-1.47
		V8.17c-0.54-0.4-1.04-1.15-1.04-2.07c0-1.81,1.46-2.82,3.1-2.82c0.44,0,0.85,0.08,1.17,0.19h2.81v1.37h-1.43
		c0.26,0.29,0.45,0.78,0.45,1.32c0,1.75-1.33,2.68-2.99,2.68c-0.33,0-0.71-0.07-1.06-0.21c-0.24,0.2-0.38,0.4-0.38,0.75
		c0,0.44,0.32,0.71,1.27,0.71h1.4c1.88,0,2.88,0.58,2.88,1.94c0,1.55-1.63,2.77-4.19,2.77C387.13,14.8,385.73,14.13,385.73,12.75z
		 M391.42,12.33c0-0.61-0.49-0.79-1.39-0.79h-1.08c-0.42,0-0.76-0.03-1.06-0.11c-0.42,0.32-0.61,0.67-0.61,1.04
		c0,0.72,0.77,1.13,2,1.13C390.55,13.61,391.42,13.01,391.42,12.33z M390.46,6.1c0-0.99-0.6-1.55-1.36-1.55
		c-0.77,0-1.36,0.56-1.36,1.55c0,1,0.61,1.58,1.36,1.58C389.85,7.68,390.46,7.09,390.46,6.1z"/>
        <path class="st1" d="M393.81,7.4c0-2.55,1.77-4.13,3.62-4.13c2.13,0,3.25,1.54,3.25,3.73c0,0.35-0.04,0.7-0.08,0.9h-4.99
		c0.15,1.4,1.05,2.19,2.32,2.19c0.67,0,1.25-0.21,1.83-0.57l0.63,1.15c-0.75,0.51-1.7,0.85-2.7,0.85
		C395.52,11.52,393.81,9.99,393.81,7.4z M399.09,6.65c0-1.21-0.54-1.95-1.61-1.95c-0.92,0-1.72,0.69-1.88,1.95H399.09z"/>
        <path class="st1" d="M401.66,10.42l0.86-1.17c0.7,0.54,1.37,0.88,2.17,0.88c0.86,0,1.26-0.4,1.26-0.94c0-0.66-0.85-0.95-1.69-1.27
		c-1.03-0.39-2.21-0.98-2.21-2.29c0-1.36,1.1-2.35,2.86-2.35c1.09,0,1.97,0.45,2.61,0.94l-0.85,1.13c-0.55-0.4-1.1-0.69-1.72-0.69
		c-0.79,0-1.17,0.38-1.17,0.87c0,0.62,0.79,0.86,1.65,1.17c1.06,0.4,2.25,0.91,2.25,2.38c0,1.35-1.07,2.44-3.05,2.44
		C403.56,11.52,402.43,11.06,401.66,10.42z"/>
</g>
    <line class="st3" x1="304.22" y1="56.79" x2="349.13" y2="56.79"/>
    <line class="st3" x1="304.22" y1="98.78" x2="349.13" y2="117.15"/>
    <line class="st3" x1="304.44" y1="138.42" x2="349.13" y2="117.15"/>
    <line class="st3" x1="303.23" y1="176.82" x2="350.25" y2="200.45"/>
    <line class="st3" x1="305.39" y1="215.82" x2="350.25" y2="200.45"/>
    <line class="st3" x1="304.33" y1="254.82" x2="350.19" y2="277.82"/>
    <line class="st3" x1="304.33" y1="295.82" x2="350.19" y2="277.82"/>
    <line class="st3" x1="304.33" y1="335.21" x2="350.19" y2="277.82"/>
    <line class="st3" x1="350.25" y1="334.73" x2="304.33" y2="335.21"/>
    <line class="st3" x1="304.33" y1="295.82" x2="350.25" y2="334.73"/>
    <g>
	<path class="st4" d="M137,23.79v119.27H1V23.79H137 M138,22.79H0v121.27h138V22.79L138,22.79z"/>
</g>
    <g>
	<path class="st0" d="M11.09,34.69h1.43l0.68,3.96c0.13,0.83,0.26,1.67,0.39,2.5h0.05c0.16-0.83,0.34-1.68,0.51-2.5l0.96-3.96h1.21
		l0.96,3.96c0.17,0.81,0.35,1.66,0.52,2.5h0.05c0.13-0.84,0.25-1.68,0.38-2.5l0.68-3.96h1.33l-1.51,7.84h-1.72l-0.97-4.13
		c-0.13-0.61-0.25-1.21-0.35-1.8h-0.05c-0.11,0.6-0.23,1.19-0.35,1.8l-0.95,4.13h-1.69L11.09,34.69z"/>
        <path class="st0" d="M20.97,39.59c0-1.91,1.33-3.09,2.72-3.09c1.59,0,2.43,1.15,2.43,2.8c0,0.26-0.03,0.53-0.06,0.67h-3.74
		c0.12,1.05,0.79,1.64,1.74,1.64c0.5,0,0.94-0.16,1.37-0.43l0.47,0.86c-0.56,0.38-1.27,0.64-2.02,0.64
		C22.24,42.68,20.97,41.54,20.97,39.59z M24.92,39.03c0-0.91-0.4-1.46-1.21-1.46c-0.69,0-1.29,0.51-1.41,1.46H24.92z"/>
        <path class="st0" d="M28.69,41.92h-0.04l-0.12,0.62h-1.09v-8.47h1.38v2.19l-0.04,0.98c0.49-0.43,1.1-0.73,1.7-0.73
		c1.47,0,2.32,1.18,2.32,2.99c0,2.02-1.2,3.19-2.51,3.19C29.76,42.68,29.18,42.41,28.69,41.92z M31.39,39.51
		c0-1.18-0.38-1.87-1.28-1.87c-0.43,0-0.84,0.22-1.29,0.66v2.74c0.41,0.36,0.84,0.49,1.18,0.49C30.79,41.54,31.39,40.85,31.39,39.51
		z"/>
        <path class="st0" d="M36.64,34.69h2.09c2.4,0,3.82,1.3,3.82,3.89c0,2.6-1.42,3.95-3.75,3.95h-2.16V34.69z M38.64,41.41
		c1.58,0,2.48-0.9,2.48-2.83c0-1.93-0.91-2.76-2.48-2.76h-0.61v5.59H38.64z"/>
        <path class="st0" d="M44.14,34.69h2.51c1.61,0,2.8,0.49,2.8,1.93c0,0.74-0.4,1.46-1.09,1.7v0.05c0.87,0.2,1.51,0.8,1.51,1.86
		c0,1.57-1.29,2.3-3.01,2.3h-2.71V34.69z M46.53,37.93c1.09,0,1.56-0.43,1.56-1.11c0-0.76-0.51-1.05-1.53-1.05h-1.02v2.15H46.53z
		 M46.71,41.45c1.15,0,1.79-0.41,1.79-1.3c0-0.83-0.62-1.19-1.79-1.19h-1.18v2.48H46.71z"/>
</g>
    <g>
	<path class="st4" d="M137,160.82v119.27H1V160.82H137 M138,159.82H0v121.27h138V159.82L138,159.82z"/>
</g>
    <g>
	<path class="st0" d="M11.09,171.72h1.43l0.68,3.96c0.13,0.83,0.26,1.67,0.39,2.5h0.05c0.16-0.83,0.34-1.68,0.51-2.5l0.96-3.96h1.21
		l0.96,3.96c0.17,0.81,0.35,1.66,0.52,2.5h0.05c0.13-0.84,0.25-1.68,0.38-2.5l0.68-3.96h1.33l-1.51,7.84h-1.72l-0.97-4.13
		c-0.13-0.61-0.25-1.21-0.35-1.8h-0.05c-0.11,0.6-0.23,1.19-0.35,1.8l-0.95,4.13h-1.69L11.09,171.72z"/>
        <path class="st0" d="M20.97,176.62c0-1.96,1.33-3.09,2.8-3.09s2.8,1.13,2.8,3.09c0,1.95-1.33,3.08-2.8,3.08
		S20.97,178.58,20.97,176.62z M25.15,176.62c0-1.18-0.52-1.97-1.38-1.97c-0.86,0-1.38,0.79-1.38,1.97s0.52,1.96,1.38,1.96
		C24.63,178.58,25.15,177.8,25.15,176.62z"/>
        <path class="st0" d="M27.94,173.67h1.13l0.11,1.05h0.04c0.42-0.77,1.04-1.19,1.67-1.19c0.3,0,0.49,0.04,0.67,0.12l-0.24,1.2
		c-0.21-0.06-0.36-0.1-0.6-0.1c-0.47,0-1.04,0.32-1.39,1.22v3.59h-1.38V173.67z"/>
        <path class="st0" d="M31.94,176.62c0-1.92,1.2-3.09,2.49-3.09c0.67,0,1.09,0.25,1.54,0.65l-0.05-0.95v-2.13h1.38v8.47h-1.13
		l-0.11-0.64h-0.04c-0.44,0.44-1.04,0.78-1.67,0.78C32.89,179.71,31.94,178.57,31.94,176.62z M35.93,177.91v-2.74
		c-0.4-0.36-0.8-0.49-1.2-0.49c-0.75,0-1.37,0.71-1.37,1.94c0,1.28,0.49,1.96,1.34,1.96C35.15,178.57,35.54,178.37,35.93,177.91z"/>
        <path class="st0" d="M39.19,171.72h2.47c1.74,0,3.03,0.6,3.03,2.42c0,1.75-1.3,2.54-2.98,2.54h-1.13v2.88h-1.39V171.72z
		 M41.59,175.57c1.17,0,1.73-0.47,1.73-1.43c0-0.97-0.61-1.3-1.77-1.3h-0.96v2.73H41.59z"/>
        <path class="st0" d="M46.05,173.67h1.13l0.11,1.05h0.04c0.42-0.77,1.04-1.19,1.67-1.19c0.3,0,0.49,0.04,0.67,0.12l-0.24,1.2
		c-0.21-0.06-0.36-0.1-0.6-0.1c-0.47,0-1.04,0.32-1.39,1.22v3.59h-1.38V173.67z"/>
        <path class="st0" d="M50.02,176.62c0-1.91,1.33-3.09,2.72-3.09c1.59,0,2.43,1.15,2.43,2.8c0,0.26-0.03,0.53-0.06,0.67h-3.74
		c0.12,1.05,0.79,1.64,1.74,1.64c0.5,0,0.94-0.16,1.37-0.43l0.47,0.86c-0.56,0.38-1.27,0.64-2.02,0.64
		C51.29,179.71,50.02,178.57,50.02,176.62z M53.97,176.06c0-0.91-0.4-1.46-1.21-1.46c-0.69,0-1.29,0.51-1.41,1.46H53.97z"/>
        <path class="st0" d="M55.91,178.89l0.64-0.88c0.52,0.41,1.03,0.66,1.63,0.66c0.64,0,0.94-0.3,0.94-0.71c0-0.49-0.64-0.71-1.27-0.95
		c-0.77-0.29-1.65-0.73-1.65-1.72c0-1.02,0.83-1.76,2.14-1.76c0.82,0,1.48,0.33,1.96,0.71l-0.63,0.85c-0.41-0.3-0.83-0.51-1.29-0.51
		c-0.59,0-0.87,0.28-0.87,0.65c0,0.47,0.59,0.64,1.23,0.88c0.8,0.3,1.69,0.68,1.69,1.78c0,1.01-0.8,1.83-2.29,1.83
		C57.33,179.71,56.48,179.36,55.91,178.89z"/>
        <path class="st0" d="M61.08,178.89l0.64-0.88c0.52,0.41,1.03,0.66,1.63,0.66c0.64,0,0.94-0.3,0.94-0.71c0-0.49-0.64-0.71-1.27-0.95
		c-0.77-0.29-1.65-0.73-1.65-1.72c0-1.02,0.83-1.76,2.14-1.76c0.82,0,1.48,0.33,1.96,0.71l-0.63,0.85c-0.41-0.3-0.83-0.51-1.29-0.51
		c-0.59,0-0.87,0.28-0.87,0.65c0,0.47,0.59,0.64,1.23,0.88c0.8,0.3,1.69,0.68,1.69,1.78c0,1.01-0.8,1.83-2.29,1.83
		C62.5,179.71,61.65,179.36,61.08,178.89z"/>
        <path class="st0" d="M69.35,171.72h2.09c2.4,0,3.82,1.3,3.82,3.89c0,2.6-1.42,3.95-3.75,3.95h-2.16V171.72z M71.36,178.44
		c1.58,0,2.48-0.9,2.48-2.83c0-1.93-0.91-2.76-2.48-2.76h-0.61v5.59H71.36z"/>
        <path class="st0" d="M76.85,171.72h2.51c1.61,0,2.8,0.49,2.8,1.93c0,0.74-0.4,1.46-1.09,1.7v0.05c0.87,0.2,1.51,0.8,1.51,1.86
		c0,1.57-1.29,2.3-3.01,2.3h-2.71V171.72z M79.24,174.96c1.09,0,1.56-0.43,1.56-1.11c0-0.76-0.51-1.05-1.53-1.05h-1.02v2.15H79.24z
		 M79.42,178.48c1.15,0,1.79-0.41,1.79-1.3c0-0.83-0.62-1.19-1.79-1.19h-1.18v2.48H79.42z"/>
</g>
    <g>
	<path class="st4" d="M137,299.61V405H1V299.61H137 M138,298.61H0V406h138V298.61L138,298.61z"/>
</g>
    <g>
	<path class="st0" d="M11.88,310.51h2.51c1.61,0,2.8,0.49,2.8,1.93c0,0.74-0.4,1.46-1.09,1.7v0.05c0.87,0.2,1.51,0.8,1.51,1.86
		c0,1.57-1.29,2.3-3.01,2.3h-2.71V310.51z M14.26,313.75c1.09,0,1.56-0.43,1.56-1.11c0-0.76-0.51-1.05-1.53-1.05h-1.02v2.15H14.26z
		 M14.44,317.27c1.15,0,1.79-0.41,1.79-1.3c0-0.83-0.62-1.18-1.79-1.18h-1.18v2.48H14.44z"/>
        <path class="st0" d="M18.53,315.41c0-1.96,1.33-3.09,2.8-3.09s2.8,1.13,2.8,3.09c0,1.95-1.33,3.08-2.8,3.08
		S18.53,317.37,18.53,315.41z M22.72,315.41c0-1.18-0.52-1.97-1.38-1.97c-0.86,0-1.38,0.79-1.38,1.97c0,1.18,0.52,1.96,1.38,1.96
		C22.2,317.37,22.72,316.6,22.72,315.41z"/>
        <path class="st0" d="M25.12,315.41c0-1.96,1.33-3.09,2.8-3.09s2.8,1.13,2.8,3.09c0,1.95-1.33,3.08-2.8,3.08
		S25.12,317.37,25.12,315.41z M29.3,315.41c0-1.18-0.52-1.97-1.38-1.97c-0.86,0-1.38,0.79-1.38,1.97c0,1.18,0.52,1.96,1.38,1.96
		C28.78,317.37,29.3,316.6,29.3,315.41z"/>
        <path class="st0" d="M32.02,309.88h1.35v5.29h0.04l2.18-2.71h1.51l-2.02,2.4l2.23,3.49h-1.5l-1.52-2.56l-0.92,1.06v1.5h-1.35
		V309.88z"/>
        <path class="st0" d="M38.13,310.65c0-0.46,0.36-0.78,0.85-0.78c0.49,0,0.85,0.32,0.85,0.78c0,0.46-0.36,0.78-0.85,0.78
		C38.49,311.43,38.13,311.11,38.13,310.65z M38.29,312.46h1.38v5.89h-1.38V312.46z"/>
        <path class="st0" d="M41.43,312.46h1.13l0.11,0.8h0.04c0.53-0.51,1.13-0.94,1.93-0.94c1.26,0,1.81,0.85,1.81,2.34v3.69h-1.38v-3.52
		c0-0.97-0.28-1.33-0.92-1.33c-0.52,0-0.86,0.25-1.34,0.73v4.12h-1.38V312.46z"/>
        <path class="st0" d="M47.75,319.43c0-0.5,0.31-0.93,0.85-1.26v-0.05c-0.3-0.2-0.53-0.51-0.53-0.98c0-0.46,0.31-0.86,0.65-1.1v-0.05
		c-0.4-0.3-0.78-0.86-0.78-1.55c0-1.35,1.09-2.12,2.33-2.12c0.33,0,0.63,0.06,0.87,0.14h2.11v1.03h-1.07
		c0.19,0.22,0.34,0.59,0.34,0.99c0,1.31-0.99,2.01-2.24,2.01c-0.25,0-0.53-0.05-0.8-0.16c-0.18,0.15-0.29,0.3-0.29,0.56
		c0,0.33,0.24,0.53,0.96,0.53h1.05c1.41,0,2.16,0.44,2.16,1.45c0,1.16-1.22,2.08-3.14,2.08C48.8,320.96,47.75,320.46,47.75,319.43z
		 M52.01,319.11c0-0.46-0.36-0.59-1.04-0.59h-0.81c-0.32,0-0.57-0.02-0.8-0.08c-0.32,0.24-0.46,0.5-0.46,0.78
		c0,0.54,0.58,0.85,1.5,0.85C51.36,320.06,52.01,319.62,52.01,319.11z M51.29,314.44c0-0.74-0.45-1.16-1.02-1.16
		s-1.02,0.42-1.02,1.16c0,0.75,0.46,1.19,1.02,1.19C50.83,315.62,51.29,315.19,51.29,314.44z"/>
        <path class="st0" d="M56.91,310.51h4.72v1.17H58.3v2.01h2.82v1.17H58.3v2.32h3.45v1.17h-4.84V310.51z"/>
        <path class="st0" d="M63.25,312.46h1.13l0.11,0.8h0.04c0.53-0.51,1.13-0.94,1.93-0.94c1.26,0,1.81,0.85,1.81,2.34v3.69h-1.38v-3.52
		c0-0.97-0.28-1.33-0.92-1.33c-0.52,0-0.86,0.25-1.34,0.73v4.12h-1.38V312.46z"/>
        <path class="st0" d="M69.56,319.43c0-0.5,0.31-0.93,0.85-1.26v-0.05c-0.3-0.2-0.53-0.51-0.53-0.98c0-0.46,0.31-0.86,0.65-1.1v-0.05
		c-0.4-0.3-0.78-0.86-0.78-1.55c0-1.35,1.09-2.12,2.33-2.12c0.33,0,0.63,0.06,0.87,0.14h2.11v1.03h-1.07
		c0.19,0.22,0.34,0.59,0.34,0.99c0,1.31-0.99,2.01-2.24,2.01c-0.25,0-0.53-0.05-0.8-0.16c-0.18,0.15-0.29,0.3-0.29,0.56
		c0,0.33,0.24,0.53,0.96,0.53H73c1.41,0,2.16,0.44,2.16,1.45c0,1.16-1.22,2.08-3.14,2.08C70.61,320.96,69.56,320.46,69.56,319.43z
		 M73.82,319.11c0-0.46-0.36-0.59-1.04-0.59h-0.81c-0.32,0-0.57-0.02-0.8-0.08c-0.32,0.24-0.46,0.5-0.46,0.78
		c0,0.54,0.58,0.85,1.5,0.85C73.18,320.06,73.82,319.62,73.82,319.11z M73.11,314.44c0-0.74-0.45-1.16-1.02-1.16
		s-1.02,0.42-1.02,1.16c0,0.75,0.46,1.19,1.02,1.19C72.65,315.62,73.11,315.19,73.11,314.44z"/>
        <path class="st0" d="M76.05,310.65c0-0.46,0.36-0.78,0.85-0.78c0.49,0,0.85,0.32,0.85,0.78c0,0.46-0.36,0.78-0.85,0.78
		C76.41,311.43,76.05,311.11,76.05,310.65z M76.21,312.46h1.38v5.89h-1.38V312.46z"/>
        <path class="st0" d="M79.35,312.46h1.13l0.11,0.8h0.04c0.53-0.51,1.13-0.94,1.93-0.94c1.26,0,1.81,0.85,1.81,2.34v3.69h-1.38v-3.52
		c0-0.97-0.28-1.33-0.92-1.33c-0.52,0-0.86,0.25-1.34,0.73v4.12h-1.38V312.46z"/>
        <path class="st0" d="M85.68,315.41c0-1.91,1.33-3.09,2.72-3.09c1.59,0,2.43,1.15,2.43,2.8c0,0.26-0.03,0.53-0.06,0.67h-3.74
		c0.12,1.04,0.79,1.64,1.74,1.64c0.5,0,0.94-0.16,1.37-0.43l0.47,0.86c-0.56,0.38-1.27,0.64-2.02,0.64
		C86.96,318.5,85.68,317.36,85.68,315.41z M89.64,314.85c0-0.91-0.4-1.46-1.21-1.46c-0.69,0-1.29,0.51-1.41,1.46H89.64z"/>
</g>
    <line class="st5" x1="138" y1="83.42" x2="150.47" y2="83.42"/>
    <line class="st5" x1="138" y1="220.45" x2="150.47" y2="220.45"/>
    <line class="st5" x1="138" y1="352.3" x2="150.47" y2="352.3"/>
</svg>
