<!-- Generator: Adobe Illustrator 23.0.1, SVG Export Plug-In  -->
<svg version="1.1" xmlns="http://www.w3.org/2000/svg" xmlns:xlink="http://www.w3.org/1999/xlink" x="0px" y="0px"
     width="101.48px" height="177.42px" viewBox="0 0 101.48 177.42" style="enable-background:new 0 0 101.48 177.42;"
     xml:space="preserve">
<style type="text/css">
	.st0{fill:#B84C1C;}
	.st1{fill:#A54E27;}
</style>
    <defs>
</defs>
    <g>
	<path class="st0" d="M17.3,0C32.21,2.12,46,2,59.79,1.47c7.15-0.28,14.3-0.59,21.44-1.1c3.03-0.22,4.96,0.81,6.66,3.29
		c19.13,27.81,17.97,69.03-2.88,95.35c-7.78,9.82-18.18,14.94-30.61,15.56c-3.76,0.19-4.51,1.34-4.57,5.02
		c-0.24,14.28,0.21,28.65-3.25,42.7c-1.23,5,2.62,3.25,4.45,2.98c8.88-1.27,17.72-2.88,26.57-4.32c1.83-0.3,4.39-1.54,4.53,1.78
		c0.11,2.67,2.81,6.1-2.31,7.65c-19.99,6.08-40.3,8.76-61.1,5.92c-5.46-0.75-10.54-3.16-15-6.47c-4.62-3.44-4.7-9.06-0.34-12.83
		c3.67-3.17,8.23-4.21,12.87-4.91c2.28-0.34,2.71,0.46,2.29,2.84c-0.96,5.48,0.67,7.8,5.7,9.27c7.21,2.1,11.11,0.98,13.59-4.06
		c2.25-4.56,2.83-9.6,3.26-14.53c0.69-7.79,0.75-15.62,1.11-23.44c0.13-2.77-0.82-4.4-3.62-5.67C12.88,104.82-0.56,82.66,0.02,54.44
		c0.22-10.87,3.51-20.91,6.39-31.13c0.38-1.35,0.6-3.33,2.63-2.98c1.68,0.29,2.04,2.01,2.26,3.53c1.04,6.97,0.6,13.99,0.02,20.91
		c-1.72,20.37,4.88,37.94,17.12,53.8c2.17,2.81,4.77,5.18,7.88,6.81c1.78,0.93,4.07,4.09,5.77-0.29c0.11-0.27,0.83-0.44,1.27-0.43
		c18.78,0.02,34.56-11.94,41.05-31.34c6.23-18.65,4.4-37.43,0.53-56.19c-0.64-3.09-1.82-6.08-2.27-9.18
		C82.07,3.9,80.1,2.84,76.2,3.5C58.82,6.48,41.43,6.29,24.04,3.45C21.92,3.1,19.8,2.93,17.3,0z"/>
        <path class="st1" d="M83.34,48.41c-16.72,6.61-33.97,6.78-51.99,4.49c1.78-2.15,3.71-1.4,5.32-1.42
		c8.13-0.11,16.37,0.77,24.35-0.34c6.61-0.93,12.99-3.46,19.87-2.74C81.69,48.48,82.52,48.41,83.34,48.41z"/>
</g>
</svg>
