<?xml version="1.0" encoding="utf-8"?>
<!-- Svg Vector Icons : http://www.onlinewebfonts.com/icon -->
<!DOCTYPE svg PUBLIC "-//W3C//DTD SVG 1.1//EN" "http://www.w3.org/Graphics/SVG/1.1/DTD/svg11.dtd">
<svg version="1.1" xmlns="http://www.w3.org/2000/svg" xmlns:xlink="http://www.w3.org/1999/xlink" x="0px" y="0px" viewBox="0 0 1000 1000" enable-background="new 0 0 1000 1000" xml:space="preserve">
<metadata> Svg Vector Icons : http://www.onlinewebfonts.com/icon </metadata>
<g><g transform="translate(0.000000,511.000000) scale(0.100000,-0.100000)"><path d="M601.6,4985.8c-187.9-44.9-353.2-179.7-441-365.5l-53.1-112.3L101.4,1282c-4.1-2758.5,0-3219.9,24.5-3195.4c14.3,16.3,649.3,820.8,1410.9,1786.6c761.6,965.8,1390.5,1764.1,1398.6,1772.3c8.2,10.2,990.3-447.2,2182.7-1014.8C6308.5,63,7290.6-402.5,7298.7-402.5c10.2,2.1,167.4,240.9,353.2,535c185.8,294,767.7,1210.8,1292.5,2035.7L9900,3670.9l-6.1,418.6c-6.1,402.2-8.2,422.7-59.2,530.9c-67.4,142.9-181.7,257.3-324.7,324.6l-112.3,53.1l-4359.3,4.1C2539.3,5002.2,646.5,4996,601.6,4985.8z"/><path d="M8838.3-445.4c-581.9-916.8-1059.7-1649.7-1072-1643.7c-12.2,4.1-986.2,469.6-2166.3,1033.2C4421.8-492.3,3427.5-18.6,3392.8-2.3l-63.3,26.5l-1611-2041.8l-1611-2041.8l4.1-120.5c6.1-230.7,151.1-443.1,373.6-549.3l112.3-53.1h4400.1h4400.1l112.3,53.1c142.9,67.4,257.3,181.7,324.7,324.7l53.1,112.3l6.1,2215.4c2.1,1219,2.1,2456.3,0,2750.3l-6.1,532.9L8838.3-445.4z"/></g></g>
</svg>