<?xml version="1.0" encoding="utf-8"?>
<!-- Svg Vector Icons : http://www.onlinewebfonts.com/icon -->
<!DOCTYPE svg PUBLIC "-//W3C//DTD SVG 1.1//EN" "http://www.w3.org/Graphics/SVG/1.1/DTD/svg11.dtd">
<svg version="1.1" xmlns="http://www.w3.org/2000/svg" xmlns:xlink="http://www.w3.org/1999/xlink" x="0px" y="0px" viewBox="0 0 1000 1000" enable-background="new 0 0 1000 1000" xml:space="preserve">
<metadata> Svg Vector Icons : http://www.onlinewebfonts.com/icon </metadata>
<g><path d="M874.5,658.2C827.6,734.1,677.7,789.7,500,789.7s-327.6-55.6-374.6-131.5c-9.9-16.1-15.2-7.5-15.2,0.4c0,8,0,111.5,0,111.5c0,108,174.5,219.9,389.8,219.9c215.3,0,389.8-111.9,389.8-219.9c0,0,0-103.5,0-111.5C889.8,650.6,884.4,642,874.5,658.2z M875.1,373.3C828.9,440.4,678.5,489.7,500,489.7s-329-49.3-375.2-116.4c-9.5-13.8-14.6-6.3-14.6-0.1c0,6.3,0,131.2,0,131.2C110.2,602.6,284.7,682,500,682c215.3,0,389.8-79.5,389.8-177.6c0,0,0-125,0-131.2C889.8,367,884.7,359.5,875.1,373.3L875.1,373.3z M500,10c-215.3,0-389.8,65.7-389.8,146.6v70.2c0,85.8,174.5,155.4,389.8,155.4c215.3,0,389.8-69.6,389.8-155.4v-70.2C889.8,75.7,715.3,10,500,10z"/></g>
</svg>